<?xml version="1.0" encoding="iso-8859-1"?>
<!-- Generator: Adobe Illustrator 19.0.0, SVG Export Plug-In . SVG Version: 6.00 Build 0)  -->
<svg version="1.1" id="Layer_1" xmlns="http://www.w3.org/2000/svg" xmlns:xlink="http://www.w3.org/1999/xlink" x="0px" y="0px"
	 viewBox="0 0 505 505" style="enable-background:new 0 0 505 505;" xml:space="preserve">
<circle style="fill:#FD8469;" cx="252.5" cy="252.5" r="252.5"/>
<path style="fill:#FFFFFF;" d="M384,285.8H121c-1.3,0-2.3-1-2.3-2.3V103c0-1.3,1-2.3,2.3-2.3h263c1.3,0,2.3,1,2.3,2.3v180.5
	C386.3,284.7,385.3,285.8,384,285.8z"/>
<rect x="140.1" y="122" style="fill:#324A5E;" width="224.9" height="142.4"/>
<path style="fill:#E6E9EE;" d="M428.1,388.6H76.9c-4.6,0-6.1-3.7-3.4-8.1l42.5-69.2c1.5-2.5,5.5-4.5,8.8-4.5h255.5
	c3.4,0,7.3,2,8.8,4.5l42.4,69.2C434.2,384.9,432.8,388.6,428.1,388.6z"/>
<g>
	<polygon style="fill:#ACB3BA;" points="383.3,342.4 368.6,313.8 136.4,313.8 121.7,342.4 	"/>
	<polygon style="fill:#ACB3BA;" points="221.8,350.2 215.4,376.1 289.6,376.1 283.2,350.2 	"/>
</g>
<g>
</g>
<g>
</g>
<g>
</g>
<g>
</g>
<g>
</g>
<g>
</g>
<g>
</g>
<g>
</g>
<g>
</g>
<g>
</g>
<g>
</g>
<g>
</g>
<g>
</g>
<g>
</g>
<g>
</g>
</svg>
