<?xml version="1.0" encoding="iso-8859-1"?>
<!-- Generator: Adobe Illustrator 19.0.0, SVG Export Plug-In . SVG Version: 6.00 Build 0)  -->
<svg version="1.1" id="Layer_1" xmlns="http://www.w3.org/2000/svg" xmlns:xlink="http://www.w3.org/1999/xlink" x="0px" y="0px"
	 viewBox="0 0 368 368" style="enable-background:new 0 0 368 368;" xml:space="preserve">
<circle style="fill:#9CE0FF;" cx="184" cy="184" r="176"/>
<g>
	<path style="fill:#61A1DD;" d="M184,368C82.4,368,0,285.6,0,184S82.4,0,184,0s184,82.4,184,184S285.6,368,184,368z M184,16
		C91.2,16,16,91.2,16,184s75.2,168,168,168s168-75.2,168-168S276.8,16,184,16z"/>
	<path style="fill:#61A1DD;" d="M360,192H8c-4.4,0-8-3.6-8-8s3.6-8,8-8h352c4.4,0,8,3.6,8,8S364.4,192,360,192z"/>
	<path style="fill:#61A1DD;" d="M184,368c-4.4,0-8-3.6-8-8V8c0-4.4,3.6-8,8-8s8,3.6,8,8v352C192,364.4,188.4,368,184,368z"/>
	<path style="fill:#61A1DD;" d="M184,368c-41.6,0-108-84.4-108-184c0-61.2,23.6-106.8,37.6-128.8C135.6,21.2,162.4,0,184,0
		c4.4,0,8,3.6,8,8s-3.6,8-8,8c-31.2,0-92,76-92,168s60.8,168,92,168c4.4,0,8,3.6,8,8S188.4,368,184,368z"/>
	<path style="fill:#61A1DD;" d="M184,368c-4.4,0-8-3.6-8-8s3.6-8,8-8c31.2,0,92-76,92-168c0-56.8-22-99.6-35.2-120
		c-21.2-33.2-44-48-56.8-48c-4.4,0-8-3.6-8-8s3.6-8,8-8c21.6,0,48.4,21.2,70.4,55.2c14,22,37.6,67.6,37.6,128.8
		c0,60.8-23.6,106.8-37.6,128.8C232.4,346.8,205.2,368,184,368z"/>
</g>
<g>
</g>
<g>
</g>
<g>
</g>
<g>
</g>
<g>
</g>
<g>
</g>
<g>
</g>
<g>
</g>
<g>
</g>
<g>
</g>
<g>
</g>
<g>
</g>
<g>
</g>
<g>
</g>
<g>
</g>
</svg>
