<?xml version="1.0" encoding="iso-8859-1"?>
<!-- Generator: Adobe Illustrator 19.0.0, SVG Export Plug-In . SVG Version: 6.00 Build 0)  -->
<svg version="1.1" id="Layer_1" xmlns="http://www.w3.org/2000/svg" xmlns:xlink="http://www.w3.org/1999/xlink" x="0px" y="0px"
	 viewBox="0 0 383.6 383.6" style="enable-background:new 0 0 383.6 383.6;" xml:space="preserve">
<path style="fill:#ACE6ED;" d="M335.8,99.6v244c0,17.6-14.4,32-32,32h-220c-17.6,0-36-14.4-36-32v-240"/>
<path style="fill:#56B27D;" d="M303.8,383.6h-220c-20.8,0-44-17.2-44-40v-240c0-4.4,3.6-8,8-8s8,3.6,8,8v240c0,13.2,15.2,24,28,24
	h220c13.2,0,24-10.8,24-24v-244c0-4.4,3.6-8,8-8s8,3.6,8,8v244C343.8,365.6,325.8,383.6,303.8,383.6z"/>
<path style="fill:#FFC33B;" d="M211.8,103.6h-164c-8.8,0-16-7.2-16-16v-16c0-17.6,14.4-32,32-32h80h100h76c17.6,0,32,14.4,32,32v16
	c0,7.6-5.2,13.6-12,15.6"/>
<g>
	<path style="fill:#BB8813;" d="M211.8,111.6h-164c-13.2,0-24-10.8-24-24v-16c0-22,18-40,40-40h256c22,0,40,18,40,40v16
		c0,10.8-7.2,20-17.6,23.2c-4.4,1.2-8.8-1.2-10-5.6c-1.2-4.4,1.2-8.8,5.6-10c2.8-0.8,6.4-3.6,6.4-8v-16c0-13.2-10.8-24-24-24H63.8
		c-13.2,0-24,10.8-24,24v16c0,4.4,3.6,8,8,8h164c4.4,0,8,3.6,8,8S216.2,111.6,211.8,111.6z"/>
	<path style="fill:#BB8813;" d="M283.8,111.6h-12c-4.4,0-8-3.6-8-8s3.6-8,8-8h12c4.4,0,8,3.6,8,8S288.2,111.6,283.8,111.6z"/>
</g>
<g>
	<path style="fill:#56B27D;" d="M103.8,175.6h-8c-4.4,0-8-3.6-8-8s3.6-8,8-8h8c4.4,0,8,3.6,8,8S108.2,175.6,103.8,175.6z"/>
	<path style="fill:#56B27D;" d="M103.8,223.6h-8c-4.4,0-8-3.6-8-8s3.6-8,8-8h8c4.4,0,8,3.6,8,8S108.2,223.6,103.8,223.6z"/>
	<path style="fill:#56B27D;" d="M251.8,175.6h-112c-4.4,0-8-3.6-8-8s3.6-8,8-8h112c4.4,0,8,3.6,8,8S256.2,175.6,251.8,175.6z"/>
	<path style="fill:#56B27D;" d="M271.8,223.6h-132c-4.4,0-8-3.6-8-8s3.6-8,8-8h132c4.4,0,8,3.6,8,8S276.2,223.6,271.8,223.6z"/>
	<path style="fill:#56B27D;" d="M103.8,271.6h-8c-4.4,0-8-3.6-8-8s3.6-8,8-8h8c4.4,0,8,3.6,8,8S108.2,271.6,103.8,271.6z"/>
	<path style="fill:#56B27D;" d="M227.8,271.6h-88c-4.4,0-8-3.6-8-8s3.6-8,8-8h88c4.4,0,8,3.6,8,8S232.2,271.6,227.8,271.6z"/>
</g>
<path style="fill:#FFE53C;" d="M150.2,35.6l32-24.4c5.6-4.4,13.6-4.4,19.6,0l32,24.4c4,3.2,6.4,7.6,6.4,12.8v7.2c0,8.8-7.2,16-16,16
	h-64.4c-8.8,0-16-7.2-16-16v-7.2C143.8,43.2,146.2,38.4,150.2,35.6z"/>
<path style="fill:#C39215;" d="M224.2,79.6h-64.4c-13.2,0-24-10.8-24-24v-7.2c0-7.6,3.6-14.8,9.6-19.2l32-24.4
	c8.4-6.4,20.4-6.4,29.2,0l32,24.4c6.4,4.8,9.6,11.6,9.6,19.2v7.2C248.2,68.8,237.4,79.6,224.2,79.6z M191.8,16
	c-1.6,0-3.2,0.4-4.8,1.6L155,42c0,0,0,0-0.4,0c-1.6,1.6-2.8,3.6-2.8,6.4v7.2c0,4.4,3.6,8,8,8h64.4c4.4,0,8-3.6,8-8v-7.2
	c0-2.4-1.2-4.8-3.2-6.4l-32-24.4C195.4,16.4,193.8,16,191.8,16z M150.2,35.6L150.2,35.6L150.2,35.6z"/>
<g>
</g>
<g>
</g>
<g>
</g>
<g>
</g>
<g>
</g>
<g>
</g>
<g>
</g>
<g>
</g>
<g>
</g>
<g>
</g>
<g>
</g>
<g>
</g>
<g>
</g>
<g>
</g>
<g>
</g>
</svg>
