<?xml version="1.0" encoding="iso-8859-1"?>
<!-- Generator: Adobe Illustrator 19.0.0, SVG Export Plug-In . SVG Version: 6.00 Build 0)  -->
<svg version="1.1" id="Capa_1" xmlns="http://www.w3.org/2000/svg" xmlns:xlink="http://www.w3.org/1999/xlink" x="0px" y="0px"
	 viewBox="0 0 72.333 72.333" style="enable-background:new 0 0 72.333 72.333;" xml:space="preserve">
<g>
	<g>
		<path d="M63.167,0h-10h-40c-6.065,0-11,4.935-11,11v50.333c0,6.065,4.935,11,11,11h40h10c3.859,0,7-3.141,7-7V7
			C70.167,3.14,67.025,0,63.167,0z M13.167,66.333c-2.757,0-5-2.243-5-5V11c0-2.757,2.243-5,5-5h40c0.552,0,1,0.449,1,1v58.333
			c0,0.552-0.448,1-1,1H13.167z M64.167,65.333c0,0.552-0.448,1-1,1h-3.08c0.047-0.327,0.08-0.659,0.08-1V7
			c0-0.34-0.032-0.672-0.08-1h3.08c0.552,0,1,0.449,1,1V65.333z"/>
		<rect x="15.333" y="16.118" width="32.834" height="6"/>
		<rect x="15.333" y="25.452" width="32.834" height="6"/>
	</g>
</g>
<g>
</g>
<g>
</g>
<g>
</g>
<g>
</g>
<g>
</g>
<g>
</g>
<g>
</g>
<g>
</g>
<g>
</g>
<g>
</g>
<g>
</g>
<g>
</g>
<g>
</g>
<g>
</g>
<g>
</g>
</svg>
