<svg xmlns="http://www.w3.org/2000/svg" viewBox="0 0 36 36" width="36" height="36" fill="none">
  <defs>
    <linearGradient id="sm-grad" x1="2" y1="2" x2="34" y2="34" gradientUnits="userSpaceOnUse">
      <stop offset="0%" stop-color="#f59e0b" />
      <stop offset="100%" stop-color="#c67139" />
    </linearGradient>
    <linearGradient id="sm-node-grad" x1="0" y1="0" x2="1" y2="1">
      <stop offset="0%" stop-color="#ffffff" />
      <stop offset="100%" stop-color="#fef3c7" />
    </linearGradient>
  </defs>
  <!-- Background soft rounded square -->
  <rect x="2" y="2" width="32" height="32" rx="9" fill="url(#sm-grad)" />
  
  <!-- Mind Map Branches -->
  <path d="M18 18 C14 18 11 13 8 13" stroke="#ffffff" stroke-width="2" stroke-linecap="round" fill="none" opacity="0.9" />
  <path d="M18 18 C22 18 25 13 28 13" stroke="#ffffff" stroke-width="2" stroke-linecap="round" fill="none" opacity="0.9" />
  <path d="M18 18 C14 18 11 23 8 23" stroke="#ffffff" stroke-width="2" stroke-linecap="round" fill="none" opacity="0.9" />
  <path d="M18 18 C22 18 25 23 28 23" stroke="#ffffff" stroke-width="2" stroke-linecap="round" fill="none" opacity="0.9" />
  
  <!-- Outer Satellite Nodes -->
  <circle cx="8" cy="13" r="2.75" fill="#ffffff" />
  <circle cx="28" cy="13" r="2.75" fill="#ffffff" />
  <circle cx="8" cy="23" r="2.75" fill="#ffffff" />
  <circle cx="28" cy="23" r="2.75" fill="#ffffff" />
  
  <!-- Central Hub Node -->
  <circle cx="18" cy="18" r="5" fill="#ffffff" />
  <circle cx="18" cy="18" r="2.5" fill="#c67139" />
</svg>
