<svg xmlns="http://www.w3.org/2000/svg" width="38" height="27" fill="none" viewBox="0 0 38 27">
    <path fill="#FFCB00" stroke="#000" stroke-linejoin="round" stroke-width="1.5" d="M19 26c-1.5-4-3.5-3.5-9-7h17.5c-4.786 3.127-7.5 3-8.5 7z"/>
    <path fill="#FFCB00" stroke="#000" stroke-width="1.5" d="M32.34 11.956c0 2.447-1.45 4.745-3.97 6.465-2.514 1.718-6.03 2.804-9.95 2.804-3.92 0-7.436-1.086-9.951-2.804-2.519-1.72-3.97-4.018-3.97-6.465 0-2.446 1.451-4.745 3.97-6.465 2.515-1.717 6.03-2.804 9.95-2.804 3.921 0 7.437 1.087 9.952 2.804 2.518 1.72 3.97 4.019 3.97 6.465z"/>
    <mask id="i08j30ef6a" fill="#fff">
        <path d="M17 8c0 2.122-.895 4.157-2.49 5.657C12.916 15.157 10.754 16 8.5 16s-4.416-.843-6.01-2.343C.896 12.157 0 10.122 0 8h17z"/>
    </mask>
    <path fill="#B3D4FF" stroke="#000" stroke-width="3" d="M17 8c0 2.122-.895 4.157-2.49 5.657C12.916 15.157 10.754 16 8.5 16s-4.416-.843-6.01-2.343C.896 12.157 0 10.122 0 8h17z" mask="url(#i08j30ef6a)"/>
    <mask id="1f1ltfoetb" fill="#fff">
        <path d="M38 8c0 2.122-.895 4.157-2.49 5.657C33.916 15.157 31.754 16 29.5 16s-4.416-.843-6.01-2.343C21.895 12.157 21 10.122 21 8h17z"/>
    </mask>
    <path fill="#B3D4FF" stroke="#000" stroke-width="3" d="M38 8c0 2.122-.895 4.157-2.49 5.657C33.916 15.157 31.754 16 29.5 16s-4.416-.843-6.01-2.343C21.895 12.157 21 10.122 21 8h17z" mask="url(#1f1ltfoetb)"/>
    <path stroke="#000" stroke-width="1.5" d="M16 9.125c2-1.5 4-1.5 6 0"/>
    <path fill="#FFCB00" d="M19.186 24.75C17.686 20.75 9 19 10.5 18s16-1.5 17-.5-6.857 2.826-8.314 7.25z"/>
</svg>
