<?xml version="1.0" encoding="UTF-8" standalone="no"?>
<!-- Generator: Adobe Illustrator 19.0.0, SVG Export Plug-In . SVG Version: 6.00 Build 0)  -->

<svg
   version="1.1"
   id="Layer_1"
   x="0px"
   y="0px"
   viewBox="0 0 512 512"
   style="enable-background:new 0 0 512 512;"
   xml:space="preserve"
   sodipodi:docname="arrowc_turn_left.svg"
   inkscape:version="1.1.1 (c3084ef, 2021-09-22)"
   xmlns:inkscape="http://www.inkscape.org/namespaces/inkscape"
   xmlns:sodipodi="http://sodipodi.sourceforge.net/DTD/sodipodi-0.dtd"
   xmlns="http://www.w3.org/2000/svg"
   xmlns:svg="http://www.w3.org/2000/svg"><defs
   id="defs1277" /><sodipodi:namedview
   id="namedview1275"
   pagecolor="#ffffff"
   bordercolor="#666666"
   borderopacity="1.0"
   inkscape:pageshadow="2"
   inkscape:pageopacity="0.0"
   inkscape:pagecheckerboard="0"
   showgrid="false"
   inkscape:zoom="1.0820312"
   inkscape:cx="255.53791"
   inkscape:cy="256"
   inkscape:window-width="1296"
   inkscape:window-height="776"
   inkscape:window-x="0"
   inkscape:window-y="25"
   inkscape:window-maximized="0"
   inkscape:current-layer="Layer_1" />
<polygon
   style="fill:#00B4D7;"
   points="395.386,476.106 503.013,476.106 503.013,171.161 186.109,171.161 257.861,99.409   198.068,39.616 12.71,224.975 198.068,410.333 257.861,350.54 186.109,278.789 395.386,278.789 "
   id="polygon1236" />


<path
   d="M512,485.093H386.398V287.776H207.806l62.765,62.765l-72.503,72.503L0,224.975L198.068,26.907l72.503,72.502l-62.765,62.765  H512V485.093z M404.372,467.119h89.654V180.148H164.413l80.739-80.739l-47.084-47.083L25.419,224.975l172.649,172.649l47.084-47.084  l-80.739-80.739h239.959V467.119z"
   id="path1242" />
<g
   id="g1244">
</g>
<g
   id="g1246">
</g>
<g
   id="g1248">
</g>
<g
   id="g1250">
</g>
<g
   id="g1252">
</g>
<g
   id="g1254">
</g>
<g
   id="g1256">
</g>
<g
   id="g1258">
</g>
<g
   id="g1260">
</g>
<g
   id="g1262">
</g>
<g
   id="g1264">
</g>
<g
   id="g1266">
</g>
<g
   id="g1268">
</g>
<g
   id="g1270">
</g>
<g
   id="g1272">
</g>
</svg>
