<?xml version="1.0" encoding="UTF-8" standalone="no"?>
<!-- Generator: Adobe Illustrator 19.0.0, SVG Export Plug-In . SVG Version: 6.00 Build 0)  -->

<svg
   version="1.1"
   id="Layer_1"
   x="0px"
   y="0px"
   viewBox="0 0 512 512"
   style="enable-background:new 0 0 512 512;"
   xml:space="preserve"
   sodipodi:docname="arrowc_turn_right.svg"
   inkscape:version="1.1.1 (c3084ef, 2021-09-22)"
   xmlns:inkscape="http://www.inkscape.org/namespaces/inkscape"
   xmlns:sodipodi="http://sodipodi.sourceforge.net/DTD/sodipodi-0.dtd"
   xmlns="http://www.w3.org/2000/svg"
   xmlns:svg="http://www.w3.org/2000/svg"><defs
   id="defs2375" /><sodipodi:namedview
   id="namedview2373"
   pagecolor="#ffffff"
   bordercolor="#666666"
   borderopacity="1.0"
   inkscape:pageshadow="2"
   inkscape:pageopacity="0.0"
   inkscape:pagecheckerboard="0"
   showgrid="false"
   inkscape:zoom="1.0820312"
   inkscape:cx="255.53791"
   inkscape:cy="256"
   inkscape:window-width="1296"
   inkscape:window-height="776"
   inkscape:window-x="0"
   inkscape:window-y="25"
   inkscape:window-maximized="0"
   inkscape:current-layer="Layer_1" />
<polygon
   style="fill:#00B4D7;"
   points="116.615,476.107 8.987,476.107 8.987,171.162 325.891,171.162 254.139,99.409   313.932,39.616 499.291,224.975 313.932,410.333 254.139,350.54 325.891,278.789 116.615,278.789 "
   id="polygon2334" />


<path
   d="M125.602,485.094H0v-322.92h304.194l-62.765-62.765l72.503-72.503L512,224.975L313.932,423.043l-72.503-72.503  l62.765-62.765H125.602V485.094z M17.974,467.12h89.654V269.802h239.959l-80.739,80.739l47.084,47.084l172.649-172.649  L313.932,52.325l-47.084,47.084l80.739,80.739H17.974V467.12z"
   id="path2340" />
<g
   id="g2342">
</g>
<g
   id="g2344">
</g>
<g
   id="g2346">
</g>
<g
   id="g2348">
</g>
<g
   id="g2350">
</g>
<g
   id="g2352">
</g>
<g
   id="g2354">
</g>
<g
   id="g2356">
</g>
<g
   id="g2358">
</g>
<g
   id="g2360">
</g>
<g
   id="g2362">
</g>
<g
   id="g2364">
</g>
<g
   id="g2366">
</g>
<g
   id="g2368">
</g>
<g
   id="g2370">
</g>
</svg>
