<?xml version="1.0" encoding="UTF-8" standalone="no"?>
<!-- Generator: Adobe Illustrator 19.0.0, SVG Export Plug-In . SVG Version: 6.00 Build 0)  -->

<svg
   version="1.1"
   id="Layer_1"
   x="0px"
   y="0px"
   viewBox="0 0 512 512"
   style="enable-background:new 0 0 512 512;"
   xml:space="preserve"
   sodipodi:docname="arrow_merge.svg"
   inkscape:version="1.1.1 (c3084ef, 2021-09-22)"
   xmlns:inkscape="http://www.inkscape.org/namespaces/inkscape"
   xmlns:sodipodi="http://sodipodi.sourceforge.net/DTD/sodipodi-0.dtd"
   xmlns="http://www.w3.org/2000/svg"
   xmlns:svg="http://www.w3.org/2000/svg"><defs
   id="defs1658" /><sodipodi:namedview
   id="namedview1656"
   pagecolor="#ffffff"
   bordercolor="#666666"
   borderopacity="1.0"
   inkscape:pageshadow="2"
   inkscape:pageopacity="0.0"
   inkscape:pagecheckerboard="0"
   showgrid="false"
   inkscape:zoom="1.0820312"
   inkscape:cx="255.53791"
   inkscape:cy="256"
   inkscape:window-width="1296"
   inkscape:window-height="776"
   inkscape:window-x="0"
   inkscape:window-y="25"
   inkscape:window-maximized="0"
   inkscape:current-layer="Layer_1" />
<path
   style="fill:#00B4D7;"
   d="M253.626,369.977v66.486H92.159V203.761c-16.622,16.622-33.243,33.243-33.243,33.243l-47.49-47.49  L125.402,75.537l113.977,113.977l-47.49,47.49l-33.243-33.243v166.216H253.626z"
   id="path1609" />

<path
   d="M261.705,444.542H84.079V223.265l-25.164,25.164L0,189.514L125.402,64.112l125.402,125.402l-58.915,58.916l-25.164-25.164  v138.632h94.981V444.542z M100.238,428.384h145.309v-50.328h-94.981v-193.8l41.322,41.322l36.064-36.064L125.402,86.963  L22.851,189.514l36.064,36.064l41.322-41.322L100.238,428.384L100.238,428.384z"
   id="path1613" />

<path
   style="fill:#00B4D7;"
   d="M258.374,142.023V75.537H419.84v232.702c16.622-16.622,33.243-33.243,33.243-33.243l47.49,47.49  L386.598,436.463L272.622,322.486l47.49-47.49l33.243,33.243V142.023L258.374,142.023L258.374,142.023z"
   id="path1617" />

<path
   d="M386.598,447.888L261.197,322.486l58.916-58.915l25.164,25.164V150.102h-94.981V67.458h177.626v221.277l25.164-25.164  L512,322.486L386.598,447.888z M284.048,322.486l102.551,102.552l102.551-102.552l-36.064-36.064l-41.322,41.322V83.616H266.453  v50.328h94.981v193.799l-41.322-41.322L284.048,322.486z"
   id="path1621" />

<g
   id="g1625">
</g>
<g
   id="g1627">
</g>
<g
   id="g1629">
</g>
<g
   id="g1631">
</g>
<g
   id="g1633">
</g>
<g
   id="g1635">
</g>
<g
   id="g1637">
</g>
<g
   id="g1639">
</g>
<g
   id="g1641">
</g>
<g
   id="g1643">
</g>
<g
   id="g1645">
</g>
<g
   id="g1647">
</g>
<g
   id="g1649">
</g>
<g
   id="g1651">
</g>
<g
   id="g1653">
</g>
</svg>
