<?xml version="1.0" encoding="iso-8859-1"?>
<!-- Generator: Adobe Illustrator 19.0.0, SVG Export Plug-In . SVG Version: 6.00 Build 0)  -->
<svg version="1.1" id="Layer_1" xmlns="http://www.w3.org/2000/svg" xmlns:xlink="http://www.w3.org/1999/xlink" x="0px" y="0px"
	 viewBox="0 0 512.001 512.001" style="enable-background:new 0 0 512.001 512.001;" xml:space="preserve">
<g>
	<path style="fill:#407190;" d="M197.852,345.632c-11.929-7.769-28.97-2.745-38.061,11.215l-63.172,97.022
		c-9.09,13.96-6.787,31.576,5.142,39.34c11.929,7.769,28.97,2.745,38.061-11.215l63.172-97.017
		C212.084,371.015,209.781,353.4,197.852,345.632z"/>
	<path style="fill:#407190;" d="M314.146,345.632c11.929-7.769,28.966-2.745,38.061,11.215l63.172,97.022
		c9.09,13.96,6.787,31.576-5.142,39.34c-11.929,7.769-28.97,2.745-38.061-11.215l-63.172-97.017
		C299.914,371.015,302.217,353.4,314.146,345.632z"/>
</g>
<path style="fill:#CD4E38;" d="M292.795,49.633c0,7.395-5.992,13.387-13.387,13.387h-46.824c-7.395,0-13.387-5.992-13.387-13.387
	V28.525c0-7.395,5.992-13.387,13.387-13.387h46.828c7.395,0,13.387,5.992,13.387,13.387v21.108H292.795z"/>
<g>
	<rect x="191.324" y="43.284" style="fill:#407190;" width="129.362" height="62.726"/>
	
		<rect x="66.328" y="52.444" transform="matrix(-0.7071 0.7071 -0.7071 -0.7071 235.4177 119.4317)" style="fill:#407190;" width="53.291" height="112.056"/>
</g>
<path style="fill:#CD4E38;" d="M157.892,37.955C123.061,8.882,74.036,8.245,38.784,34.78c-0.212-0.242-0.416-0.484-0.646-0.718
	c-5.401-5.401-14.164-5.401-19.566,0s-5.401,14.164,0,19.566c0.229,0.229,0.472,0.438,0.714,0.646
	c-26.531,35.252-25.894,84.272,3.179,119.107c0.654,0.786,1.606,1.258,2.626,1.3c1.02,0.051,2.01-0.336,2.733-1.058l130.31-130.31
	c0.722-0.722,1.109-1.713,1.062-2.737C159.15,39.566,158.674,38.609,157.892,37.955z"/>
<rect x="392.371" y="52.434" transform="matrix(0.7071 0.7071 -0.7071 0.7071 199.4214 -264.5218)" style="fill:#407190;" width="53.291" height="112.056"/>
<path style="fill:#CD4E38;" d="M354.106,37.955c34.835-29.072,83.856-29.706,119.107-3.175c0.212-0.242,0.421-0.484,0.65-0.718
	c5.401-5.401,14.164-5.401,19.566,0c5.401,5.401,5.401,14.164,0,19.566c-0.229,0.229-0.476,0.438-0.714,0.646
	c26.527,35.252,25.894,84.272-3.179,119.107c-0.654,0.786-1.606,1.258-2.626,1.3c-1.02,0.051-2.01-0.336-2.733-1.058L353.864,43.314
	c-0.722-0.722-1.109-1.713-1.062-2.737C352.848,39.566,353.32,38.609,354.106,37.955z"/>
<circle style="fill:#589BC7;" cx="256.005" cy="271.984" r="212.742"/>
<g style="opacity:0.4;">
	<circle style="fill:#FBF5E2;" cx="256.005" cy="271.984" r="182.951"/>
</g>
<circle style="fill:#FBF5E2;" cx="256.005" cy="271.984" r="165.298"/>
<path style="fill:#407190;" d="M328.825,332.385c5.478,5.788,5.533,14.628,0.128,19.749l0,0c-5.41,5.117-14.237,4.573-19.715-1.211
	l-53.296-56.925c-5.478-5.788-5.533-14.628-0.127-19.749l0,0c5.41-5.117,14.237-4.573,19.715,1.211L328.825,332.385z"/>
<g style="opacity:0.4;">
	<path style="fill:#407190;" d="M334.213,148.367c2.036-3.655,0.714-8.27-2.945-10.306l0,0c-3.659-2.036-8.274-0.718-10.306,2.941
		l-67.698,121.53c-2.036,3.659-0.714,8.274,2.945,10.31l0,0c3.659,2.036,8.274,0.718,10.306-2.941L334.213,148.367z"/>
</g>
<path style="fill:#CD4E38;" d="M116.036,215.386c-0.909,2.184,0.123,4.692,2.303,5.593l133.374,55.519
	c2.18,0.909,4.687-0.123,5.593-2.303l0,0c0.905-2.184-0.123-4.692-2.308-5.593l-133.365-55.519
	C119.449,212.173,116.945,213.206,116.036,215.386L116.036,215.386z"/>
<circle style="fill:#589BC7;" cx="256.005" cy="271.984" r="36.284"/>
<g>
	<circle style="fill:#CD4E38;" cx="256.005" cy="131.598" r="9.456"/>
	<circle style="fill:#CD4E38;" cx="256.005" cy="412.353" r="9.456"/>
	<circle style="fill:#CD4E38;" cx="115.594" cy="271.984" r="9.456"/>
	<circle style="fill:#CD4E38;" cx="396.374" cy="271.984" r="9.456"/>
</g>
<g>
</g>
<g>
</g>
<g>
</g>
<g>
</g>
<g>
</g>
<g>
</g>
<g>
</g>
<g>
</g>
<g>
</g>
<g>
</g>
<g>
</g>
<g>
</g>
<g>
</g>
<g>
</g>
<g>
</g>
</svg>
