<?xml version="1.0" encoding="UTF-8" standalone="no"?>
<!-- Generator: Adobe Illustrator 19.0.0, SVG Export Plug-In . SVG Version: 6.00 Build 0)  -->

<svg
   version="1.1"
   id="Layer_1"
   x="0px"
   y="0px"
   viewBox="0 0 473.931 473.931"
   style="enable-background:new 0 0 473.931 473.931;"
   xml:space="preserve"
   sodipodi:docname="face_smile_big.svg"
   inkscape:version="1.1.1 (c3084ef, 2021-09-22)"
   xmlns:inkscape="http://www.inkscape.org/namespaces/inkscape"
   xmlns:sodipodi="http://sodipodi.sourceforge.net/DTD/sodipodi-0.dtd"
   xmlns="http://www.w3.org/2000/svg"
   xmlns:svg="http://www.w3.org/2000/svg"><defs
   id="defs6921" /><sodipodi:namedview
   id="namedview6919"
   pagecolor="#ffffff"
   bordercolor="#666666"
   borderopacity="1.0"
   inkscape:pageshadow="2"
   inkscape:pageopacity="0.0"
   inkscape:pagecheckerboard="0"
   showgrid="false"
   inkscape:zoom="1.1689465"
   inkscape:cx="68.009954"
   inkscape:cy="236.9655"
   inkscape:window-width="1296"
   inkscape:window-height="776"
   inkscape:window-x="0"
   inkscape:window-y="25"
   inkscape:window-maximized="0"
   inkscape:current-layer="Layer_1" />
<circle
   style="fill:#FFC10E;stroke-width:4;stroke-miterlimit:4;stroke-dasharray:none;stroke:#000000;stroke-opacity:1"
   cx="236.966"
   cy="236.966"
   r="236.966"
   id="circle6872" />
<path
   style="fill:#FFFFFF;"
   d="M81.391,237.123c0,85.911,69.649,155.56,155.56,155.56c85.915,0,155.564-69.649,155.564-155.56  L81.391,237.123L81.391,237.123z"
   id="path6874" />
<g
   id="g6880">
	<path
   style="fill:#CCCBCB;"
   d="M167.728,237.123c0,46.435,0,92.87,0,139.306c6.024,3.001,12.273,5.609,18.709,7.82   c0-49.043,0-98.083,0-147.126H167.728z"
   id="path6876" />
	<path
   style="fill:#CCCBCB;"
   d="M283.319,237.123c0,49.511,0,99.018,0,148.529c6.432-2.006,12.666-4.453,18.709-7.24   c0-47.098,0-94.191,0-141.289L283.319,237.123L283.319,237.123z"
   id="path6878" />
</g>
<g
   id="g6886">
	<path
   style="fill:#333333;"
   d="M219.181,158.793c-1.684-31.255-23.992-53.56-55.243-55.243   c-31.184-1.68-53.698,26.522-55.243,55.243c-0.651,12.063,18.061,12,18.709,0c2.537-47.09,70.536-47.09,73.069,0   C201.12,170.793,219.832,170.856,219.181,158.793L219.181,158.793z"
   id="path6882" />
	<path
   style="fill:#333333;"
   d="M353.985,158.793c-1.684-31.255-23.992-53.56-55.243-55.243   c-31.184-1.68-53.694,26.522-55.243,55.243c-0.651,12.063,18.061,12,18.709,0c2.537-47.09,70.532-47.09,73.069,0   C335.924,170.793,354.637,170.856,353.985,158.793L353.985,158.793z"
   id="path6884" />
</g>
<g
   id="g6888">
</g>
<g
   id="g6890">
</g>
<g
   id="g6892">
</g>
<g
   id="g6894">
</g>
<g
   id="g6896">
</g>
<g
   id="g6898">
</g>
<g
   id="g6900">
</g>
<g
   id="g6902">
</g>
<g
   id="g6904">
</g>
<g
   id="g6906">
</g>
<g
   id="g6908">
</g>
<g
   id="g6910">
</g>
<g
   id="g6912">
</g>
<g
   id="g6914">
</g>
<g
   id="g6916">
</g>
</svg>
