<?xml version="1.0" encoding="UTF-8" standalone="no"?>
<svg
   width="2050px"
   height="2050px"
   viewBox="0 0 2050 2050"
   version="1.1"
   id="svg2379"
   sodipodi:docname="face_crying.svg"
   inkscape:version="1.1.1 (c3084ef, 2021-09-22)"
   xmlns:inkscape="http://www.inkscape.org/namespaces/inkscape"
   xmlns:sodipodi="http://sodipodi.sourceforge.net/DTD/sodipodi-0.dtd"
   xmlns="http://www.w3.org/2000/svg"
   xmlns:svg="http://www.w3.org/2000/svg">
  <sodipodi:namedview
     id="namedview2381"
     pagecolor="#ffffff"
     bordercolor="#666666"
     borderopacity="1.0"
     inkscape:pageshadow="2"
     inkscape:pageopacity="0.0"
     inkscape:pagecheckerboard="0"
     showgrid="false"
     inkscape:zoom="0.2702439"
     inkscape:cx="1026.8502"
     inkscape:cy="1025"
     inkscape:window-width="1296"
     inkscape:window-height="776"
     inkscape:window-x="0"
     inkscape:window-y="25"
     inkscape:window-maximized="0"
     inkscape:current-layer="svg2379" />
  <defs
     id="defs2347">
    <style
       id="style2345">.cls-1{fill:#fff;}.cls-2{fill:#ffc500;}.cls-3{fill:#ff9f1e;}.cls-4{fill:#ffe059;}.cls-5{fill:#4795ff;}.cls-6{fill:#4778ff;}.cls-7{fill:#00305f;}</style>
  </defs>
  <title
     id="title2349" />
  <g
     data-name="Layer 3"
     id="Layer_3"
     transform="matrix(1.6602398,0,0,1.6692842,-674.89539,-682.31564)">
    <circle
       class="cls-2"
       cx="1025"
       cy="1025"
       r="613.70001"
       id="circle2354" />
    <path
       class="cls-3"
       d="m 1068.5,1551.8 c -339,0 -613.7,-274.8 -613.7,-613.7 A 613.5,613.5 0 0 1 499.2,708.3 610.7,610.7 0 0 0 411.3,1025 c 0,338.9 274.8,613.7 613.7,613.7 257.7,0 478.3,-158.8 569.2,-383.9 -107.4,178 -302.7,297 -525.7,297 z"
       id="path2356" />
    <path
       class="cls-4"
       d="m 1025,411.3 a 610.4,610.4 0 0 0 -365.1,120.4 706.9,706.9 0 0 1 453.2,-18.9 27.8,27.8 0 0 0 -3.3,5.1 c -18.2,33.9 18.9,89.1 82.7,123.3 63.8,34.2 130.4,34.6 148.6,0.8 a 38.6,38.6 0 0 0 3.7,-10.5 c 165.2,128 271.9,328.1 272.9,553.1 a 613.3,613.3 0 0 0 21,-159.6 c 0,-338.9 -274.8,-613.7 -613.7,-613.7 z"
       id="path2358" />
    <ellipse
       class="cls-4"
       cx="1339.4"
       cy="698.79999"
       rx="30.799999"
       ry="52.799999"
       transform="rotate(-79,1338.4579,699.0109)"
       id="ellipse2360" />
    <ellipse
       class="cls-4"
       cx="1235.1"
       cy="718.70001"
       rx="17.200001"
       ry="25"
       transform="rotate(-60,1235.1003,718.74352)"
       id="ellipse2362" />
    <path
       class="cls-5"
       d="m 885.9,1332.9 c -10.2,-111.3 -64,-106.3 -74.2,-217.6 -10.2,-111.3 43.6,-116.2 33.4,-227.5 l -112.3,10.1 c 10.2,111.3 -43.6,116.2 -33.4,227.5 10.2,111.3 64,106.3 74.2,217.6 10.2,111.3 -43,116.2 -33.6,225.6 a 604.4,604.4 0 0 0 110.3,44.9 c 3,-3.6 6.1,-7.4 9.2,-11.4 -10.2,-111.2 36.5,-157.9 26.4,-269.2 z"
       id="path2364" />
    <path
       class="cls-6"
       d="m 753.8,1465.1 c -9.6,26.1 -18,54.3 -13.8,103.5 a 604.4,604.4 0 0 0 110.3,44.9 c 3,-3.6 6.1,-7.4 9.2,-11.4 a 331.8,331.8 0 0 1 3.1,-85.7 615.4,615.4 0 0 1 -108.8,-51.3 z"
       id="path2366" />
    <path
       class="cls-7"
       d="m 1100.5,1144 a 29.2,29.2 0 0 1 -15,-4.1 c -41.3,-23.9 -79.7,-23.9 -121,0 A 30,30 0 0 1 934.4,1088 c 29.7,-17.2 60.2,-26 90.6,-26 30.4,0 60.9,8.8 90.6,26 a 30,30 0 0 1 -15.1,56 z"
       id="path2368" />
    <path
       class="cls-7"
       d="M 906.9,909.8 H 675.5 a 30,30 0 0 1 0,-60 h 231.4 a 30,30 0 0 1 0,60 z"
       id="path2370" />
    <path
       class="cls-5"
       d="m 1164.1,1332.9 c 10.2,-111.3 64,-106.3 74.2,-217.6 10.2,-111.3 -43.6,-116.2 -33.4,-227.5 l 112.3,10.1 c -10.2,111.3 43.6,116.2 33.4,227.5 -10.2,111.3 -64,106.3 -74.2,217.6 -10.2,111.3 43,116.2 33.6,225.6 a 604.4,604.4 0 0 1 -110.3,44.9 c -3,-3.6 -6.1,-7.4 -9.2,-11.4 10.2,-111.2 -36.5,-157.9 -26.4,-269.2 z"
       id="path2372" />
    <path
       class="cls-6"
       d="m 1190.5,1602.1 c 3.1,4 6.2,7.8 9.2,11.4 a 604.4,604.4 0 0 0 110.3,-44.9 c 2.3,-27 0.8,-47.6 -2.5,-65.1 a 609.6,609.6 0 0 1 -117.1,36.2 332,332 0 0 1 0.1,62.4 z"
       id="path2374" />
    <path
       class="cls-7"
       d="m 1143.1,909.8 h 231.4 a 30,30 0 0 0 0,-60 h -231.4 a 30,30 0 0 0 0,60 z"
       id="path2376" />
  </g>
</svg>
