<?xml version="1.0" encoding="UTF-8" standalone="no"?>
<!-- Generator: Adobe Illustrator 19.0.0, SVG Export Plug-In . SVG Version: 6.00 Build 0)  -->

<svg
   version="1.1"
   id="Layer_1"
   x="0px"
   y="0px"
   viewBox="0 0 473.935 473.935"
   style="enable-background:new 0 0 473.935 473.935;"
   xml:space="preserve"
   sodipodi:docname="face_plain.svg"
   inkscape:version="1.1.1 (c3084ef, 2021-09-22)"
   xmlns:inkscape="http://www.inkscape.org/namespaces/inkscape"
   xmlns:sodipodi="http://sodipodi.sourceforge.net/DTD/sodipodi-0.dtd"
   xmlns="http://www.w3.org/2000/svg"
   xmlns:svg="http://www.w3.org/2000/svg"><defs
   id="defs7439" /><sodipodi:namedview
   id="namedview7437"
   pagecolor="#ffffff"
   bordercolor="#666666"
   borderopacity="1.0"
   inkscape:pageshadow="2"
   inkscape:pageopacity="0.0"
   inkscape:pagecheckerboard="0"
   showgrid="false"
   inkscape:zoom="1.1689367"
   inkscape:cx="68.010528"
   inkscape:cy="236.9675"
   inkscape:window-width="1296"
   inkscape:window-height="776"
   inkscape:window-x="0"
   inkscape:window-y="25"
   inkscape:window-maximized="0"
   inkscape:current-layer="Layer_1" />
<circle
   style="fill:#FFC10E;stroke-width:4;stroke-miterlimit:4;stroke-dasharray:none;stroke:#000000;stroke-opacity:1"
   cx="236.967"
   cy="236.967"
   r="236.967"
   id="circle7392" />
<g
   id="g7404">
	<circle
   style="fill:#333333;"
   cx="164.938"
   cy="207.632"
   r="37.216"
   id="circle7394" />
	<circle
   style="fill:#333333;"
   cx="313.637"
   cy="207.632"
   r="37.216"
   id="circle7396" />
	<path
   style="fill:#333333;"
   d="M280.432,101.047c12.456-14.571,24.913-29.137,37.366-43.708c-4.412,0-8.816,0-13.227,0   c25.141,20.176,50.282,40.351,75.423,60.527c9.31,7.472,22.642-5.676,13.227-13.227c-25.141-20.176-50.282-40.351-75.423-60.527   c-3.719-2.986-9.658-4.176-13.227,0c-12.456,14.571-24.913,29.137-37.366,43.708C259.411,96.935,272.582,110.233,280.432,101.047   L280.432,101.047z"
   id="path7398" />
	<path
   style="fill:#333333;"
   d="M208.635,87.82c-12.456-14.571-24.909-29.137-37.365-43.708c-3.57-4.176-9.508-2.986-13.227,0   c-25.145,20.176-50.282,40.351-75.423,60.527c-9.414,7.551,3.918,20.7,13.227,13.227c25.141-20.176,50.282-40.351,75.423-60.527   c-4.412,0-8.816,0-13.227,0c12.456,14.571,24.909,29.137,37.365,43.708C203.258,110.233,216.429,96.935,208.635,87.82   L208.635,87.82z"
   id="path7400" />
	<path
   style="fill:#333333;"
   d="M178.592,369.397c35.831,11.326,71.659,22.66,107.49,33.99c11.54,3.648,16.438-14.421,4.977-18.043   c-35.831-11.326-71.659-22.66-107.49-33.99C172.029,347.706,167.134,365.771,178.592,369.397L178.592,369.397z"
   id="path7402" />
</g>
<g
   id="g7406">
</g>
<g
   id="g7408">
</g>
<g
   id="g7410">
</g>
<g
   id="g7412">
</g>
<g
   id="g7414">
</g>
<g
   id="g7416">
</g>
<g
   id="g7418">
</g>
<g
   id="g7420">
</g>
<g
   id="g7422">
</g>
<g
   id="g7424">
</g>
<g
   id="g7426">
</g>
<g
   id="g7428">
</g>
<g
   id="g7430">
</g>
<g
   id="g7432">
</g>
<g
   id="g7434">
</g>
</svg>
