<?xml version="1.0" encoding="UTF-8" standalone="no"?>
<svg
   width="2050px"
   height="2050px"
   viewBox="0 0 2050 2050"
   version="1.1"
   id="svg1706"
   sodipodi:docname="face_plain.svg"
   inkscape:version="1.1.1 (c3084ef, 2021-09-22)"
   xmlns:inkscape="http://www.inkscape.org/namespaces/inkscape"
   xmlns:sodipodi="http://sodipodi.sourceforge.net/DTD/sodipodi-0.dtd"
   xmlns="http://www.w3.org/2000/svg"
   xmlns:svg="http://www.w3.org/2000/svg">
  <sodipodi:namedview
     id="namedview1708"
     pagecolor="#ffffff"
     bordercolor="#666666"
     borderopacity="1.0"
     inkscape:pageshadow="2"
     inkscape:pageopacity="0.0"
     inkscape:pagecheckerboard="0"
     showgrid="false"
     inkscape:zoom="0.083639661"
     inkscape:cx="-185.31878"
     inkscape:cy="394.54966"
     inkscape:window-width="1296"
     inkscape:window-height="776"
     inkscape:window-x="0"
     inkscape:window-y="25"
     inkscape:window-maximized="0"
     inkscape:current-layer="svg1706" />
  <defs
     id="defs1678">
    <style
       id="style1676">.cls-1{fill:#fff;}.cls-2{fill:#ffc500;}.cls-3{fill:#ff9f1e;}.cls-4{fill:#ffe059;}.cls-5{fill:#00305f;}</style>
  </defs>
  <title
     id="title1680" />
  <g
     data-name="Layer 3"
     id="Layer_3"
     transform="matrix(1.6721254,0,0,1.6526436,-682.9503,-674.93736)">
    <circle
       class="cls-2"
       cx="1025"
       cy="1025"
       r="613.70001"
       id="circle1685" />
    <path
       class="cls-3"
       d="m 1068.5,1551.8 c -339,0 -613.7,-274.8 -613.7,-613.7 A 613.5,613.5 0 0 1 499.2,708.3 610.7,610.7 0 0 0 411.3,1025 c 0,338.9 274.8,613.7 613.7,613.7 257.7,0 478.3,-158.8 569.2,-383.9 -107.4,178 -302.7,297 -525.7,297 z"
       id="path1687" />
    <path
       class="cls-4"
       d="m 1025,411.3 a 610.4,610.4 0 0 0 -365.1,120.4 706.9,706.9 0 0 1 453.2,-18.9 27.8,27.8 0 0 0 -3.3,5.1 c -18.2,33.9 18.9,89.1 82.7,123.3 63.8,34.2 130.4,34.6 148.6,0.8 a 38.6,38.6 0 0 0 3.7,-10.5 c 165.2,128 271.9,328.1 272.9,553.1 a 613.3,613.3 0 0 0 21,-159.6 c 0,-338.9 -274.8,-613.7 -613.7,-613.7 z"
       id="path1689" />
    <ellipse
       class="cls-4"
       cx="1339.4"
       cy="698.79999"
       rx="30.799999"
       ry="52.799999"
       transform="rotate(-79,1338.4579,699.0109)"
       id="ellipse1691" />
    <ellipse
       class="cls-4"
       cx="1235.1"
       cy="718.70001"
       rx="17.200001"
       ry="25"
       transform="rotate(-60,1235.1003,718.74352)"
       id="ellipse1693" />
    <ellipse
       class="cls-5"
       cx="773.90002"
       cy="896.29999"
       rx="94.900002"
       ry="60.200001"
       transform="rotate(-87.5,774.17572,896.35979)"
       id="ellipse1695" />
    <circle
       class="cls-1"
       cx="803.59998"
       cy="857.70001"
       r="16.6"
       id="circle1697" />
    <ellipse
       class="cls-5"
       cx="1276.1"
       cy="896.29999"
       rx="60.200001"
       ry="94.900002"
       transform="rotate(-2.5,1266.6633,891.93327)"
       id="ellipse1699" />
    <circle
       class="cls-1"
       cx="1296.4"
       cy="857.70001"
       r="16.6"
       id="circle1701" />
    <path
       class="cls-5"
       d="m 855.6,1175 a 70.8,70.8 0 1 0 0,141.6 h 338.8 a 70.8,70.8 0 1 0 0,-141.6 z"
       id="path1703" />
  </g>
</svg>
