<?xml version="1.0" encoding="UTF-8" standalone="no"?>
<!-- Generator: Adobe Illustrator 19.0.0, SVG Export Plug-In . SVG Version: 6.00 Build 0)  -->

<svg
   version="1.1"
   id="Layer_1"
   x="0px"
   y="0px"
   viewBox="0 0 473.931 473.931"
   style="enable-background:new 0 0 473.931 473.931;"
   xml:space="preserve"
   sodipodi:docname="face_love.svg"
   inkscape:version="1.1.1 (c3084ef, 2021-09-22)"
   xmlns:inkscape="http://www.inkscape.org/namespaces/inkscape"
   xmlns:sodipodi="http://sodipodi.sourceforge.net/DTD/sodipodi-0.dtd"
   xmlns="http://www.w3.org/2000/svg"
   xmlns:svg="http://www.w3.org/2000/svg"><defs
   id="defs7144" /><sodipodi:namedview
   id="namedview7142"
   pagecolor="#ffffff"
   bordercolor="#666666"
   borderopacity="1.0"
   inkscape:pageshadow="2"
   inkscape:pageopacity="0.0"
   inkscape:pagecheckerboard="0"
   showgrid="false"
   inkscape:zoom="1.1689465"
   inkscape:cx="68.009954"
   inkscape:cy="236.9655"
   inkscape:window-width="1296"
   inkscape:window-height="776"
   inkscape:window-x="0"
   inkscape:window-y="25"
   inkscape:window-maximized="0"
   inkscape:current-layer="Layer_1" />
<circle
   style="fill:#FFC10E;stroke-width:4;stroke-miterlimit:4;stroke-dasharray:none;stroke:#000000;stroke-opacity:1"
   cx="236.966"
   cy="236.966"
   r="236.966"
   id="circle7101" />
<g
   id="g7107">
	<path
   style="fill:#ED3533;"
   d="M182.13,109.97c-14.133,0-27.262,6.892-35.154,18.432l-1.628,2.069l-1.089-1.388   c-7.802-11.962-20.954-19.109-35.232-19.109c-24.363,0-42.042,17.684-42.042,42.039c0,35.962,65.107,88.968,69.855,92.784   c2.241,2.144,5.175,3.323,8.288,3.323s6.047-1.175,8.288-3.326c4.763-3.847,70.753-57.683,70.753-92.781   C224.169,127.654,206.489,109.97,182.13,109.97z"
   id="path7103" />
	<path
   style="fill:#ED3533;"
   d="M366.696,109.97c-14.133,0-27.262,6.892-35.154,18.432l-1.628,2.069l-1.089-1.388   c-7.802-11.962-20.954-19.109-35.232-19.109c-24.363,0-42.042,17.684-42.042,42.039c0,35.962,65.107,88.968,69.855,92.784   c2.241,2.144,5.175,3.323,8.288,3.323c3.109,0,6.043-1.175,8.288-3.326c4.76-3.843,70.749-57.683,70.749-92.781   C408.735,127.654,391.055,109.97,366.696,109.97z"
   id="path7105" />
</g>
<path
   style="fill:#333333;"
   d="M343.254,316.86c-59.281,60.325-154.662,59.853-213.449-0.898c-8.4-8.681-21.616,4.561-13.227,13.227  c65.769,67.969,173.644,68.332,239.903,0.898C364.941,321.481,351.718,308.246,343.254,316.86L343.254,316.86z"
   id="path7109" />
<g
   id="g7111">
</g>
<g
   id="g7113">
</g>
<g
   id="g7115">
</g>
<g
   id="g7117">
</g>
<g
   id="g7119">
</g>
<g
   id="g7121">
</g>
<g
   id="g7123">
</g>
<g
   id="g7125">
</g>
<g
   id="g7127">
</g>
<g
   id="g7129">
</g>
<g
   id="g7131">
</g>
<g
   id="g7133">
</g>
<g
   id="g7135">
</g>
<g
   id="g7137">
</g>
<g
   id="g7139">
</g>
</svg>
