<?xml version="1.0" encoding="UTF-8" standalone="no"?>
<svg
   width="2050px"
   height="2050px"
   viewBox="0 0 2050 2050"
   version="1.1"
   id="svg2754"
   sodipodi:docname="face_smile_big.svg"
   inkscape:version="1.1.1 (c3084ef, 2021-09-22)"
   xmlns:inkscape="http://www.inkscape.org/namespaces/inkscape"
   xmlns:sodipodi="http://sodipodi.sourceforge.net/DTD/sodipodi-0.dtd"
   xmlns="http://www.w3.org/2000/svg"
   xmlns:svg="http://www.w3.org/2000/svg">
  <sodipodi:namedview
     id="namedview2756"
     pagecolor="#ffffff"
     bordercolor="#666666"
     borderopacity="1.0"
     inkscape:pageshadow="2"
     inkscape:pageopacity="0.0"
     inkscape:pagecheckerboard="0"
     showgrid="false"
     inkscape:zoom="0.2702439"
     inkscape:cx="1026.8502"
     inkscape:cy="1006.4982"
     inkscape:window-width="1296"
     inkscape:window-height="776"
     inkscape:window-x="0"
     inkscape:window-y="25"
     inkscape:window-maximized="0"
     inkscape:current-layer="svg2754" />
  <defs
     id="defs2720">
    <style
       id="style2718">.cls-1{fill:#fff;}.cls-2{fill:#ffc500;}.cls-3{fill:#ff9f1e;}.cls-4{fill:#00305f;}.cls-5{fill:#ffe059;}.cls-6{fill:#fff1b8;}</style>
  </defs>
  <title
     id="title2722" />
  <g
     data-name="Layer 3"
     id="Layer_3"
     transform="matrix(1.6627687,0,0,1.6662153,-675.93612,-680.98697)">
    <circle
       class="cls-2"
       cx="1025"
       cy="1025"
       r="613.70001"
       id="circle2727" />
    <path
       class="cls-3"
       d="m 1078,1577.1 c -338.9,0 -613.7,-274.7 -613.7,-613.7 A 611,611 0 0 1 587.4,594.7 C 478.5,705.5 411.3,857.4 411.3,1025 c 0,338.9 274.8,613.7 613.7,613.7 200.6,0 378.6,-96.2 490.6,-245 -111.3,113.2 -266.2,183.4 -437.6,183.4 z"
       id="path2729" />
    <ellipse
       class="cls-4"
       cx="773.90002"
       cy="863.09998"
       rx="94.900002"
       ry="60.200001"
       transform="rotate(-87.5,774.16636,863.1192)"
       id="ellipse2731" />
    <circle
       class="cls-1"
       cx="803.59998"
       cy="824.5"
       r="16.6"
       id="circle2733" />
    <ellipse
       class="cls-4"
       cx="1276.1"
       cy="863.09998"
       rx="60.200001"
       ry="94.900002"
       transform="rotate(-2.5,1267.4133,857.56126)"
       id="ellipse2735" />
    <circle
       class="cls-1"
       cx="1296.4"
       cy="824.5"
       r="16.6"
       id="circle2737" />
    <path
       class="cls-4"
       d="M 1025,1497.1 A 471.7,471.7 0 0 1 552.9,1025 a 30,30 0 0 1 60,0 412.1,412.1 0 1 0 824.2,0 30,30 0 0 1 60,0 471.7,471.7 0 0 1 -472.1,472.1 z"
       id="path2739" />
    <ellipse
       class="cls-4"
       cx="602.29999"
       cy="1036.8"
       rx="105.5"
       ry="42.200001"
       id="ellipse2741" />
    <ellipse
       class="cls-4"
       cx="1447.7"
       cy="1036.8"
       rx="105.5"
       ry="42.200001"
       id="ellipse2743" />
    <path
       class="cls-5"
       d="m 1639.6,1024.9 c 0,-339 -274.7,-613.7 -613.7,-613.7 a 610.8,610.8 0 0 0 -281.4,68.2 665.3,665.3 0 0 1 431.7,23.2 c -1.1,1.6 -2.2,3.2 -3.2,4.9 -19.8,34.3 10.7,89 68.1,122.2 55.1,31.7 114.9,32.2 137.2,2 129.8,121 211,293.5 211,484.9 a 662.2,662.2 0 0 1 -41.5,231.4 610.8,610.8 0 0 0 91.8,-323.1 z"
       id="path2745" />
    <ellipse
       class="cls-5"
       cx="1110.5"
       cy="541.09998"
       rx="24.799999"
       ry="41.5"
       transform="matrix(0.5,-0.87,0.87,0.5,86.69,1232.27)"
       id="ellipse2747" />
    <ellipse
       class="cls-5"
       cx="1176.2"
       cy="661.09998"
       rx="24.799999"
       ry="41.5"
       transform="rotate(-53.5,1177.2643,661.06381)"
       id="ellipse2749" />
    <path
       class="cls-6"
       d="m 1444.9,579.2 h 0.2 A 614.3,614.3 0 0 0 1230.3,448 c -7.9,36.2 17.1,85.4 64.1,120.1 56.7,41.9 124.1,46.9 150.5,11.1 z"
       id="path2751" />
  </g>
</svg>
