<?xml version="1.0" encoding="UTF-8" standalone="no"?>
<!-- Generator: Adobe Illustrator 19.0.0, SVG Export Plug-In . SVG Version: 6.00 Build 0)  -->

<svg
   version="1.1"
   id="Layer_1"
   x="0px"
   y="0px"
   viewBox="0 0 501.551 501.551"
   style="enable-background:new 0 0 501.551 501.551;"
   xml:space="preserve"
   sodipodi:docname="flag_blue.svg"
   inkscape:version="1.1.1 (c3084ef, 2021-09-22)"
   xmlns:inkscape="http://www.inkscape.org/namespaces/inkscape"
   xmlns:sodipodi="http://sodipodi.sourceforge.net/DTD/sodipodi-0.dtd"
   xmlns="http://www.w3.org/2000/svg"
   xmlns:svg="http://www.w3.org/2000/svg"><defs
   id="defs129" /><sodipodi:namedview
   id="namedview127"
   pagecolor="#ffffff"
   bordercolor="#666666"
   borderopacity="1.0"
   inkscape:pageshadow="2"
   inkscape:pageopacity="0.0"
   inkscape:pagecheckerboard="0"
   showgrid="false"
   inkscape:zoom="1.0906169"
   inkscape:cx="250.7755"
   inkscape:cy="250.7755"
   inkscape:window-width="1312"
   inkscape:window-height="773"
   inkscape:window-x="0"
   inkscape:window-y="25"
   inkscape:window-maximized="0"
   inkscape:current-layer="Layer_1" />
<rect
   x="39.706"
   y="48.065"
   style="fill:#ACB3BA;"
   width="50.155"
   height="453.486"
   id="rect86" />
<path
   style="fill:#1e90ff"
   d="M477.518,88.816v282.122c-124.343-91.951-247.641,80.457-371.984,10.449  c-5.224-3.135-10.449-6.269-15.673-10.449V88.816c5.224,4.18,10.449,7.314,15.673,10.449  C229.878,170.318,353.176-2.09,477.518,88.816z"
   id="path88" />
<path
   style="fill:#9AA9B5;"
   d="M89.861,48.065v42.841c-7.314,4.18-15.673,6.269-25.078,6.269s-17.763-2.09-25.078-6.269V48.065  H89.861z"
   id="path90" />
<circle
   style="fill:#0000ff"
   cx="64.784"
   cy="40.751"
   r="40.751"
   id="circle92" />
<path
   style="fill:#4169e1"
   d="M105.535,99.265v282.122c-5.224-3.135-10.449-6.269-15.673-10.449V88.816  C95.086,92.996,100.31,96.131,105.535,99.265z"
   id="path94" />
<g
   id="g96">
</g>
<g
   id="g98">
</g>
<g
   id="g100">
</g>
<g
   id="g102">
</g>
<g
   id="g104">
</g>
<g
   id="g106">
</g>
<g
   id="g108">
</g>
<g
   id="g110">
</g>
<g
   id="g112">
</g>
<g
   id="g114">
</g>
<g
   id="g116">
</g>
<g
   id="g118">
</g>
<g
   id="g120">
</g>
<g
   id="g122">
</g>
<g
   id="g124">
</g>
</svg>
