<?xml version="1.0" encoding="UTF-8" standalone="no"?>
<svg
   width="2050px"
   height="2050px"
   viewBox="0 0 2050 2050"
   version="1.1"
   id="svg4311"
   sodipodi:docname="funy_glasses.svg"
   inkscape:version="1.1.1 (c3084ef, 2021-09-22)"
   xmlns:inkscape="http://www.inkscape.org/namespaces/inkscape"
   xmlns:sodipodi="http://sodipodi.sourceforge.net/DTD/sodipodi-0.dtd"
   xmlns="http://www.w3.org/2000/svg"
   xmlns:svg="http://www.w3.org/2000/svg">
  <sodipodi:namedview
     id="namedview4313"
     pagecolor="#ffffff"
     bordercolor="#666666"
     borderopacity="1.0"
     inkscape:pageshadow="2"
     inkscape:pageopacity="0.0"
     inkscape:pagecheckerboard="0"
     showgrid="false"
     inkscape:zoom="0.2702439"
     inkscape:cx="1026.8502"
     inkscape:cy="1025"
     inkscape:window-width="1296"
     inkscape:window-height="776"
     inkscape:window-x="0"
     inkscape:window-y="25"
     inkscape:window-maximized="0"
     inkscape:current-layer="svg4311" />
  <defs
     id="defs4279">
    <style
       id="style4277">.cls-1{fill:#fff;}.cls-2{fill:#ffc500;}.cls-3{fill:#ff9f1e;}.cls-4{fill:#ffe059;}.cls-5{fill:#00305f;}.cls-6{fill:#0f4f8c;}.cls-7{fill:#003039;}</style>
  </defs>
  <title
     id="title4281" />
  <g
     data-name="Layer 3"
     id="Layer_3"
     transform="matrix(1.6753138,0,0,1.672299,-692.19638,-683.55562)">
    <circle
       class="cls-2"
       cx="1025"
       cy="1025"
       r="613.70001"
       id="circle4286" />
    <path
       class="cls-3"
       d="m 1068.5,1551.8 c -339,0 -613.7,-274.8 -613.7,-613.7 A 613.5,613.5 0 0 1 499.2,708.3 610.7,610.7 0 0 0 411.3,1025 c 0,338.9 274.8,613.7 613.7,613.7 257.7,0 478.3,-158.8 569.2,-383.9 -107.4,178 -302.7,297 -525.7,297 z"
       id="path4288" />
    <path
       class="cls-4"
       d="m 1025,411.3 a 610.4,610.4 0 0 0 -365.1,120.4 706.9,706.9 0 0 1 453.2,-18.9 27.8,27.8 0 0 0 -3.3,5.1 c -18.2,33.9 18.9,89.1 82.7,123.3 63.8,34.2 130.4,34.6 148.6,0.8 a 38.6,38.6 0 0 0 3.7,-10.5 c 165.2,128 271.9,328.1 272.9,553.1 a 613.3,613.3 0 0 0 21,-159.6 c 0,-338.9 -274.8,-613.7 -613.7,-613.7 z"
       id="path4290" />
    <ellipse
       class="cls-4"
       cx="1077.2"
       cy="561.59998"
       rx="17.200001"
       ry="25"
       transform="rotate(-60,1077.195,561.64347)"
       id="ellipse4292" />
    <ellipse
       class="cls-5"
       cx="793.20001"
       cy="930.79999"
       rx="94.900002"
       ry="60.200001"
       transform="rotate(-87.5,793.44014,930.8167)"
       id="ellipse4294" />
    <circle
       class="cls-1"
       cx="826.5"
       cy="932.20001"
       r="16.6"
       id="circle4296" />
    <ellipse
       class="cls-5"
       cx="1256.8"
       cy="930.79999"
       rx="60.200001"
       ry="94.900002"
       transform="rotate(-2.5,1247.5816,925.90528)"
       id="ellipse4298" />
    <circle
       class="cls-1"
       cx="1223.5"
       cy="932.20001"
       r="16.6"
       id="circle4300" />
    <path
       class="cls-5"
       d="m 1590.7,786.7 c -93,-220.6 -311.3,-375.4 -565.7,-375.4 -254.4,0 -472.4,154.6 -565.6,375 364.8,-84.6 741.4,-87.3 1131.3,0.4 z"
       id="path4302" />
    <path
       class="cls-6"
       d="m 1025,411.3 a 610.8,610.8 0 0 0 -365.1,120.4 706.9,706.9 0 0 1 453.2,-18.9 27.8,27.8 0 0 0 -3.3,5.1 c -18.2,33.9 18.9,89.1 82.7,123.3 63.8,34.2 130.4,34.6 148.6,0.8 a 38.6,38.6 0 0 0 3.7,-10.5 704.5,704.5 0 0 1 130.4,131.8 q 57.6,10.4 115.5,23.4 C 1497.7,566.1 1279.4,411.3 1025,411.3 Z"
       id="path4304" />
    <path
       class="cls-5"
       d="m 411.4,1035.1 c 5.4,334.3 278,603.6 613.6,603.6 335.6,0 608.2,-269.3 613.6,-603.6 q -613.6,149.4 -1227.2,0 z"
       id="path4306" />
    <path
       class="cls-7"
       d="m 1068.5,1551.8 c -301.6,0 -552.4,-217.6 -604,-504.4 q -26.5,-5.9 -53.1,-12.3 c 5.4,334.3 278,603.6 613.6,603.6 256.9,0 476.8,-157.8 568.3,-381.7 l 0.2,-0.5 c 0.2,-0.5 0.5,-1.1 0.7,-1.7 -107.5,178 -302.7,297 -525.7,297 z"
       id="path4308" />
  </g>
</svg>
