<?xml version="1.0" encoding="UTF-8" standalone="no"?>
<svg
   width="2050px"
   height="2050px"
   viewBox="0 0 2050 2050"
   version="1.1"
   id="svg4119"
   sodipodi:docname="funy_kiss.svg"
   inkscape:version="1.1.1 (c3084ef, 2021-09-22)"
   xmlns:inkscape="http://www.inkscape.org/namespaces/inkscape"
   xmlns:sodipodi="http://sodipodi.sourceforge.net/DTD/sodipodi-0.dtd"
   xmlns="http://www.w3.org/2000/svg"
   xmlns:svg="http://www.w3.org/2000/svg">
  <sodipodi:namedview
     id="namedview4121"
     pagecolor="#ffffff"
     bordercolor="#666666"
     borderopacity="1.0"
     inkscape:pageshadow="2"
     inkscape:pageopacity="0.0"
     inkscape:pagecheckerboard="0"
     showgrid="false"
     inkscape:zoom="0.2702439"
     inkscape:cx="1026.8502"
     inkscape:cy="1080.5054"
     inkscape:window-width="1296"
     inkscape:window-height="776"
     inkscape:window-x="0"
     inkscape:window-y="25"
     inkscape:window-maximized="0"
     inkscape:current-layer="svg4119" />
  <defs
     id="defs4089">
    <style
       id="style4087">.cls-1{fill:#fff;}.cls-2{fill:#ffc500;}.cls-3{fill:#ff9f1e;}.cls-4{fill:#ffe059;}.cls-5{fill:#00305f;}.cls-6{fill:#ff4f4f;}</style>
  </defs>
  <title
     id="title4091" />
  <g
     data-name="Layer 3"
     id="Layer_3"
     transform="matrix(1.6602398,0,0,1.6632546,-674.89539,-676.13531)">
    <circle
       class="cls-2"
       cx="1025"
       cy="1025"
       r="613.70001"
       id="circle4096" />
    <path
       class="cls-3"
       d="m 1068.5,1551.8 c -339,0 -613.7,-274.8 -613.7,-613.7 A 613.5,613.5 0 0 1 499.2,708.3 610.7,610.7 0 0 0 411.3,1025 c 0,338.9 274.8,613.7 613.7,613.7 257.7,0 478.3,-158.8 569.2,-383.9 -107.4,178 -302.7,297 -525.7,297 z"
       id="path4098" />
    <path
       class="cls-4"
       d="m 1025,411.3 a 610.4,610.4 0 0 0 -365.1,120.4 706.9,706.9 0 0 1 453.2,-18.9 27.8,27.8 0 0 0 -3.3,5.1 c -18.2,33.9 18.9,89.1 82.7,123.3 63.8,34.2 130.4,34.6 148.6,0.8 a 38.6,38.6 0 0 0 3.7,-10.5 c 165.2,128 271.9,328.1 272.9,553.1 a 613.3,613.3 0 0 0 21,-159.6 c 0,-338.9 -274.8,-613.7 -613.7,-613.7 z"
       id="path4100" />
    <ellipse
       class="cls-4"
       cx="1339.4"
       cy="698.79999"
       rx="30.799999"
       ry="52.799999"
       transform="rotate(-79,1338.4579,699.0109)"
       id="ellipse4102" />
    <ellipse
       class="cls-4"
       cx="1235.1"
       cy="718.70001"
       rx="17.200001"
       ry="25"
       transform="rotate(-60,1235.1003,718.74352)"
       id="ellipse4104" />
    <ellipse
       class="cls-5"
       cx="821.79999"
       cy="930.09998"
       rx="94.900002"
       ry="60.200001"
       transform="rotate(-87.5,822.06473,930.19211)"
       id="ellipse4106" />
    <circle
       class="cls-1"
       cx="851.5"
       cy="891.5"
       r="16.6"
       id="circle4108" />
    <path
       class="cls-5"
       d="m 1014.5,1334.6 h -0.1 a 30,30 0 0 1 0,-60 h 0.1 c 24.6,0 37.3,-13.1 38.1,-22.1 0.6,-5.7 -5.9,-13.7 -26.2,-17.7 a 30.006083,30.006083 0 1 1 11.5,-58.9 c 24.2,4.8 43.2,14.5 56.5,29.1 13.3,14.6 19.9,33.8 18,53.3 -1.9,19.5 -13.5,40.7 -31.4,54.7 -17.9,14 -41.1,21.6 -66.5,21.6 z"
       id="path4110" />
    <path
       class="cls-5"
       d="m 1032.1,1235.4 a 30,30 0 0 1 -5.7,-59.5 c 12.7,-2.4 27.1,-8.6 26.2,-17.7 -0.9,-9.1 -13.6,-22.1 -38.1,-22.1 h -0.1 a 30,30 0 0 1 0,-60 h 0.1 c 25.4,0 48.4,7.5 66.5,21.7 18.1,14.2 29.4,33.9 31.4,54.6 a 68.4,68.4 0 0 1 -18,53.3 c -13.3,14.6 -32.3,24.4 -56.5,29.1 a 28.6,28.6 0 0 1 -5.8,0.6 z"
       id="path4112" />
    <path
       class="cls-5"
       d="m 1313.6,998.8 a 29.6,29.6 0 0 1 -19.1,-6.9 v 0 c -0.6,-0.5 -63.7,-51.8 -122.1,-42.6 a 29.7,29.7 0 0 1 -29.1,-12.2 30,30 0 0 1 -2,-31.6 c 29.6,-55.1 73.3,-75.7 104.7,-83.3 33.3,-8.1 59.8,-3.4 62.7,-2.9 30.7,15.6 17.3,61.6 -11.2,59 h 0.2 a 104.8,104.8 0 0 0 -39.7,2.7 98.9,98.9 0 0 0 -28.5,12.7 c 56.9,14 100.8,50 103.3,52.1 a 30,30 0 0 1 -19.2,53 z"
       id="path4114" />
    <path
       class="cls-6"
       d="m 1517.5,1058.3 a 82.8,82.8 0 0 0 -116.9,0 82.8,82.8 0 0 0 -117.7,0.8 c -31.7,32.6 -30.5,84.9 1.6,117.1 l 91,90.9 a 34.9,34.9 0 0 0 49.5,0 l 85.9,-85.8 q 3.4,-2.8 6.6,-6 a 82.7,82.7 0 0 0 0,-117 z"
       id="path4116" />
  </g>
</svg>
