<?xml version="1.0" encoding="UTF-8" standalone="no"?>
<svg
   width="2050px"
   height="2050px"
   viewBox="0 0 2050 2050"
   version="1.1"
   id="svg4514"
   sodipodi:docname="funy_monkey.svg"
   inkscape:version="1.1.1 (c3084ef, 2021-09-22)"
   xmlns:inkscape="http://www.inkscape.org/namespaces/inkscape"
   xmlns:sodipodi="http://sodipodi.sourceforge.net/DTD/sodipodi-0.dtd"
   xmlns="http://www.w3.org/2000/svg"
   xmlns:svg="http://www.w3.org/2000/svg">
  <sodipodi:namedview
     id="namedview4516"
     pagecolor="#ffffff"
     bordercolor="#666666"
     borderopacity="1.0"
     inkscape:pageshadow="2"
     inkscape:pageopacity="0.0"
     inkscape:pagecheckerboard="0"
     showgrid="false"
     inkscape:zoom="0.2702439"
     inkscape:cx="1026.8502"
     inkscape:cy="1025"
     inkscape:window-width="1296"
     inkscape:window-height="776"
     inkscape:window-x="0"
     inkscape:window-y="25"
     inkscape:window-maximized="0"
     inkscape:current-layer="svg4514" />
  <defs
     id="defs4472">
    <style
       id="style4470">.cls-1{fill:#fff;}.cls-2{fill:#ffc500;}.cls-3{fill:#ff9f1e;}.cls-4{fill:#ffe059;}.cls-5{fill:#00c769;}.cls-6{fill:#00ad5b;}.cls-7{fill:#00305f;}</style>
  </defs>
  <title
     id="title4474" />
  <g
     data-name="Layer 3"
     id="Layer_3"
     transform="matrix(1.657225,0,0,1.6474422,-669.95505,-658.07738)">
    <circle
       class="cls-2"
       cx="1025"
       cy="1024.3"
       r="613.70001"
       id="circle4479" />
    <path
       class="cls-3"
       d="m 1068.5,1551.1 c -339,0 -613.7,-274.8 -613.7,-613.7 a 613.5,613.5 0 0 1 44.4,-229.8 610.7,610.7 0 0 0 -87.9,316.7 c 0,338.9 274.8,613.7 613.7,613.7 257.7,0 478.3,-158.8 569.2,-383.9 -107.4,178 -302.7,297 -525.7,297 z"
       id="path4481" />
    <path
       class="cls-4"
       d="M 1025,410.6 A 610.4,610.4 0 0 0 659.9,531 a 706.9,706.9 0 0 1 453.2,-18.9 27.8,27.8 0 0 0 -3.3,5.1 c -18.2,33.9 18.9,89.1 82.7,123.3 63.8,34.2 130.4,34.6 148.6,0.8 a 38.6,38.6 0 0 0 3.7,-10.5 c 165.2,128 271.9,328.1 272.9,553.1 a 613.3,613.3 0 0 0 21,-159.6 c 0,-338.9 -274.8,-613.7 -613.7,-613.7 z"
       id="path4483" />
    <ellipse
       class="cls-4"
       cx="1039.5"
       cy="558.59998"
       rx="30.799999"
       ry="52.799999"
       transform="rotate(-63.8,1038.9454,558.6406)"
       id="ellipse4485" />
    <ellipse
       class="cls-4"
       cx="1235.1"
       cy="718"
       rx="17.200001"
       ry="25"
       transform="rotate(-60,1235.0539,718.02391)"
       id="ellipse4487" />
    <circle
       class="cls-5"
       cx="1025"
       cy="1025.7"
       r="613.70001"
       id="circle4489" />
    <path
       class="cls-6"
       d="m 1025,1409.5 c -299.6,0 -549.1,-214.8 -602.9,-498.8 a 614.2,614.2 0 0 0 -10.8,115 c 0,338.9 274.8,613.7 613.7,613.7 338.9,0 613.7,-274.8 613.7,-613.7 a 614.2,614.2 0 0 0 -10.8,-115 c -53.8,284 -303.3,498.8 -602.9,498.8 z"
       id="path4491" />
    <path
       class="cls-7"
       d="m 1256.8,1151.8 a 30.2,30.2 0 0 1 -14.7,-3.9 c -70.8,-39.7 -143.9,-59.8 -217.1,-59.8 -73.2,0 -146.3,20.1 -217.1,59.8 a 30,30 0 0 1 -29.4,-52.3 c 80,-44.8 162.9,-67.5 246.5,-67.5 83.6,0 166.5,22.7 246.5,67.5 a 30.1,30.1 0 0 1 -14.7,56.2 z"
       id="path4493" />
    <path
       class="cls-7"
       d="m 640.8,844.4 a 30,30 0 0 1 -7,-59.2 298.3,298.3 0 0 0 61,-23.8 c 26.3,-13.8 59.7,-37.3 69.7,-70.5 a 30.008707,30.008707 0 1 1 57.5,17.2 c -12.8,42.5 -47.6,79.6 -100.6,107.1 a 349.9,349.9 0 0 1 -73.6,28.3 28.6,28.6 0 0 1 -7,0.9 z"
       id="path4495" />
    <path
       class="cls-7"
       d="m 1409.2,844.4 a 28.6,28.6 0 0 1 -7,-0.9 349.9,349.9 0 0 1 -73.6,-28.3 c -53,-27.5 -87.8,-64.6 -100.6,-107.1 a 30.008707,30.008707 0 1 1 57.5,-17.2 c 19.8,66.1 129.6,94 130.7,94.3 a 30,30 0 0 1 -7,59.2 z"
       id="path4497" />
    <ellipse
       class="cls-7"
       cx="760.59998"
       cy="824.29999"
       rx="58.900002"
       ry="67.099998"
       id="ellipse4499" />
    <circle
       class="cls-1"
       cx="785.09998"
       cy="814.29999"
       r="18.6"
       id="circle4501" />
    <ellipse
       class="cls-7"
       cx="1274"
       cy="824.29999"
       rx="58.900002"
       ry="67.099998"
       id="ellipse4503" />
    <circle
       class="cls-1"
       cx="1256.8"
       cy="814.29999"
       r="18.6"
       id="circle4505" />
    <path
       class="cls-7"
       d="m 803.7,1215.8 a 30.1,30.1 0 0 1 -30,-30 97.5,97.5 0 0 0 -52.3,-86.6 30,30 0 1 1 27.8,-53.1 157.1,157.1 0 0 1 84.5,139.7 30,30 0 0 1 -30,30 z"
       id="path4507" />
    <path
       class="cls-7"
       d="m 1246.3,1215.8 a 30,30 0 0 1 -30,-30 157.1,157.1 0 0 1 84.5,-139.7 30,30 0 1 1 27.8,53.1 97.5,97.5 0 0 0 -52.3,86.6 30.1,30.1 0 0 1 -30,30 z"
       id="path4509" />
    <ellipse
       class="cls-6"
       cx="1025"
       cy="1184.7"
       rx="94.5"
       ry="11.9"
       id="ellipse4511" />
  </g>
</svg>
