<?xml version="1.0" encoding="UTF-8" standalone="no"?>
<svg
   width="2050px"
   height="2050px"
   viewBox="0 0 2050 2050"
   version="1.1"
   id="svg3744"
   sodipodi:docname="funy_angel.svg"
   inkscape:version="1.1.1 (c3084ef, 2021-09-22)"
   xmlns:inkscape="http://www.inkscape.org/namespaces/inkscape"
   xmlns:sodipodi="http://sodipodi.sourceforge.net/DTD/sodipodi-0.dtd"
   xmlns="http://www.w3.org/2000/svg"
   xmlns:svg="http://www.w3.org/2000/svg">
  <sodipodi:namedview
     id="namedview3746"
     pagecolor="#ffffff"
     bordercolor="#666666"
     borderopacity="1.0"
     inkscape:pageshadow="2"
     inkscape:pageopacity="0.0"
     inkscape:pagecheckerboard="0"
     showgrid="false"
     inkscape:zoom="0.2702439"
     inkscape:cx="1115.6588"
     inkscape:cy="1047.2022"
     inkscape:window-width="1296"
     inkscape:window-height="776"
     inkscape:window-x="0"
     inkscape:window-y="25"
     inkscape:window-maximized="0"
     inkscape:current-layer="svg3744" />
  <defs
     id="defs3724">
    <style
       id="style3722">.cls-1{fill:#fff;}.cls-2{fill:#ffc500;}.cls-3{fill:#ff9f1e;}.cls-4{fill:#4795ff;}.cls-5{fill:#00305f;}</style>
  </defs>
  <title
     id="title3726" />
  <g
     data-name="Layer 3"
     id="Layer_3"
     transform="matrix(1.6961327,0,0,1.5326067,-695.0343,-544.07158)">
    <circle
       class="cls-2"
       cx="1025"
       cy="1109.1"
       r="579.40002"
       id="circle3731" />
    <path
       class="cls-3"
       d="m 1025,862.9 c 189.4,0 359.4,-32.8 475.6,-84.9 C 1395.9,627.9 1221.9,529.7 1025,529.7 c -196.9,0 -370.9,98.2 -475.6,248.3 116.2,52.1 286.2,84.9 475.6,84.9 z"
       id="path3733" />
    <path
       class="cls-4"
       d="m 1038.6,361.5 c -302.2,0 -547.2,91.6 -547.2,204.6 0,113 245,204.5 547.2,204.5 302.2,0 547.2,-91.6 547.2,-204.5 0,-112.9 -245,-204.6 -547.2,-204.6 z m 0,315.6 c -209.2,0 -378.7,-49.7 -378.7,-111 0,-61.3 169.5,-111 378.7,-111 209.2,0 378.8,49.7 378.8,111 0,61.3 -169.6,111 -378.8,111 z"
       id="path3735" />
    <path
       class="cls-5"
       d="m 1023.5,1462.5 c -76.5,0 -148.6,-30.7 -202.9,-86.5 a 30.019202,30.019202 0 1 1 43,-41.9 c 42.9,44.1 99.7,68.4 159.9,68.4 60.2,0 119.3,-25.3 162.6,-71.2 a 30,30 0 1 1 43.6,41.1 285.4,285.4 0 0 1 -92.3,65.8 275.9,275.9 0 0 1 -113.9,24.3 z"
       id="path3737" />
    <path
       class="cls-5"
       d="m 825.5,1174.6 c -29.9,0 -59.2,-13.7 -86.8,-40.7 a 30.019202,30.019202 0 0 1 41.9,-43 c 16,15.7 31.2,23.7 44.9,23.7 13.7,0 28.9,-8 44.9,-23.7 a 30.019202,30.019202 0 1 1 41.9,43 c -27.6,27 -56.8,40.7 -86.8,40.7 z"
       id="path3739" />
    <path
       class="cls-5"
       d="m 1224.5,1174.6 c -30,0 -59.2,-13.7 -86.8,-40.7 a 30.019202,30.019202 0 1 1 41.9,-43 c 16,15.7 31.1,23.7 44.9,23.7 13.8,0 28.9,-8 44.9,-23.7 a 30.019202,30.019202 0 0 1 41.9,43 c -27.6,27 -56.9,40.7 -86.8,40.7 z"
       id="path3741" />
  </g>
</svg>
