<?xml version="1.0" encoding="iso-8859-1"?>
<!-- Generator: Adobe Illustrator 19.0.0, SVG Export Plug-In . SVG Version: 6.00 Build 0)  -->
<svg version="1.1" id="Layer_1" xmlns="http://www.w3.org/2000/svg" xmlns:xlink="http://www.w3.org/1999/xlink" x="0px" y="0px"
	 viewBox="0 0 512 512" style="enable-background:new 0 0 512 512;" xml:space="preserve">
<path style="fill:#5C6670;" d="M256,202.897c-29.327,0-53.103,23.776-53.103,53.103c0,29.328,23.777,53.103,53.103,53.103
	c29.329,0,53.103-23.776,53.103-53.103C309.103,226.673,285.329,202.897,256,202.897z M256,295.1
	c-21.594,0-39.098-17.506-39.098-39.1s17.504-39.1,39.097-39.1c21.595,0,39.1,17.506,39.1,39.1S277.595,295.1,256,295.1z"/>
<path style="fill:#C3C6C8;" d="M256,8.067C119.071,8.067,8.067,119.071,8.067,256S119.071,503.933,256,503.933
	c136.931,0,247.933-111.003,247.933-247.933S392.931,8.067,256,8.067z M256,309.103c-29.327,0-53.103-23.776-53.103-53.103
	c0-29.329,23.777-53.103,53.103-53.103c29.329,0,53.103,23.776,53.103,53.103C309.103,285.329,285.329,309.103,256,309.103z"/>
<path style="fill:#A4A9AD;" d="M256,170.05c-47.468,0-85.95,38.48-85.95,85.95s38.482,85.95,85.95,85.95
	c47.47,0,85.951-38.481,85.951-85.95S303.47,170.05,256,170.05z M256,309.103c-29.327,0-53.103-23.776-53.103-53.103
	c0-29.329,23.777-53.103,53.103-53.103c29.329,0,53.103,23.776,53.103,53.103C309.103,285.329,285.329,309.103,256,309.103z"/>
<path style="fill:#DCDDDE;" d="M387.953,46.077l-86.217,137.164c12.538,7.896,22.9,18.931,29.96,32.02l142.662-76.783
	C453.993,100.724,424.122,68.862,387.953,46.077z M79.516,430.116c14.401,14.599,30.592,27.425,48.232,38.106L211.54,329.57
	c-6.114-3.703-11.722-8.152-16.717-13.213L79.516,430.116z M256,341.95c-3.934,0-7.796-0.29-11.59-0.799L222.559,501.68
	c10.938,1.474,22.098,2.252,33.441,2.252c9.476,0,18.826-0.55,28.026-1.587l-18.311-160.958
	C262.524,341.749,259.287,341.95,256,341.95z"/>
<path d="M437.02,74.981C388.668,26.629,324.38,0,256,0S123.333,26.629,74.981,74.981C26.629,123.332,0,187.62,0,256
	s26.629,132.668,74.981,181.019C123.333,485.371,187.62,512,256,512s132.668-26.629,181.02-74.981
	C485.371,388.668,512,324.38,512,256S485.371,123.332,437.02,74.981z M425.611,425.611c-45.304,45.305-105.54,70.255-169.611,70.255
	s-124.306-24.95-169.611-70.255C41.085,380.307,16.135,320.071,16.135,256S41.085,131.694,86.389,86.39
	C131.694,41.084,191.93,16.135,256,16.135s124.307,24.95,169.611,70.256c45.305,45.304,70.256,105.54,70.256,169.611
	S470.916,380.307,425.611,425.611z M256,208.834c-26.007,0-47.165,21.159-47.165,47.167c0,26.008,21.158,47.167,47.165,47.167
	c26.008,0,47.167-21.159,47.167-47.167C303.167,229.993,282.008,208.834,256,208.834z M256,287.032
	c-17.11,0-31.03-13.92-31.03-31.032s13.92-31.032,31.03-31.032c17.111,0,31.032,13.92,31.032,31.032S273.111,287.032,256,287.032z
	 M256,161.982c-51.842,0-94.018,42.176-94.018,94.018s42.176,94.018,94.018,94.018c51.842,0,94.019-42.176,94.019-94.018
	S307.842,161.982,256,161.982z M256,333.883c-42.945,0-77.883-34.939-77.883-77.883s34.938-77.883,77.883-77.883
	c42.946,0,77.884,34.938,77.884,77.883S298.946,333.883,256,333.883z"/>
<g>
</g>
<g>
</g>
<g>
</g>
<g>
</g>
<g>
</g>
<g>
</g>
<g>
</g>
<g>
</g>
<g>
</g>
<g>
</g>
<g>
</g>
<g>
</g>
<g>
</g>
<g>
</g>
<g>
</g>
</svg>
