<?xml version="1.0" encoding="iso-8859-1"?>
<!-- Generator: Adobe Illustrator 19.0.0, SVG Export Plug-In . SVG Version: 6.00 Build 0)  -->
<svg version="1.1" id="Layer_1" xmlns="http://www.w3.org/2000/svg" xmlns:xlink="http://www.w3.org/1999/xlink" x="0px" y="0px"
	 viewBox="0 0 512 512" style="enable-background:new 0 0 512 512;" xml:space="preserve">
<path style="fill:#3F5968;" d="M479.806,461.845H32.196c-12.013,0-21.747-9.697-21.747-21.66V270.34
	c0-11.966,9.734-21.663,21.747-21.663h447.609c12.011,0,21.745,9.697,21.745,21.663v169.844
	C501.551,452.148,491.81,461.845,479.806,461.845L479.806,461.845z"/>
<g>
	<path style="fill:#FFFFFF;" d="M461.621,335.177h-24.272c-2.765,0-5.01,2.239-5.01,5.009v30.151c0,2.768,2.244,5.011,5.01,5.011
		h24.272c2.767,0,5.01-2.243,5.01-5.011v-30.151C466.632,337.422,464.389,335.177,461.621,335.177L461.621,335.177z"/>
	<path style="fill:#FFFFFF;" d="M466.632,322.28v-34.095c0-2.768-2.242-5.011-5.01-5.011h-24.272c-2.765,0-5.01,2.243-5.01,5.011
		v34.095c0,2.764,2.244,5.009,5.01,5.009h24.272C464.389,327.29,466.632,325.045,466.632,322.28L466.632,322.28z"/>
	<path style="fill:#FFFFFF;" d="M396.24,375.348h23.209c2.765,0,5.004-2.243,5.004-5.011v-30.151c0-2.765-2.239-5.009-5.004-5.009
		H396.24c-2.767,0-5.011,2.244-5.011,5.009v30.151C391.229,373.105,393.472,375.348,396.24,375.348L396.24,375.348z"/>
	<path style="fill:#FFFFFF;" d="M396.24,427.354h23.209c2.765,0,5.004-2.245,5.004-5.013v-34.093c0-2.769-2.239-5.01-5.004-5.01
		H396.24c-2.767,0-5.011,2.241-5.011,5.01v34.093C391.229,425.108,393.472,427.354,396.24,427.354L396.24,427.354z"/>
	<path style="fill:#FFFFFF;" d="M396.24,327.29h23.209c2.765,0,5.004-2.245,5.004-5.009v-34.095c0-2.768-2.239-5.011-5.004-5.011
		H396.24c-2.767,0-5.011,2.243-5.011,5.011v34.095C391.229,325.045,393.472,327.29,396.24,327.29L396.24,327.29z"/>
	<path style="fill:#FFFFFF;" d="M432.34,388.247v34.093c0,2.768,2.244,5.013,5.01,5.013h24.272c2.767,0,5.01-2.245,5.01-5.013
		v-34.093c0-2.769-2.242-5.01-5.01-5.01H437.35C434.585,383.237,432.34,385.479,432.34,388.247L432.34,388.247z"/>
	<path style="fill:#FFFFFF;" d="M144.003,422.54v-34.491c0-2.657-2.156-4.812-4.813-4.812h-34.863c-2.656,0-4.813,2.156-4.813,4.812
		v34.491c0,2.656,2.157,4.813,4.813,4.813h34.863C141.847,427.354,144.003,425.196,144.003,422.54L144.003,422.54z"/>
	<path style="fill:#FFFFFF;" d="M167.911,335.177h-34.864c-2.656,0-4.812,2.149-4.812,4.813v30.547c0,2.657,2.156,4.812,4.812,4.812
		h34.864c2.656,0,4.812-2.156,4.812-4.812V339.99C172.724,337.326,170.567,335.177,167.911,335.177L167.911,335.177z"/>
	<path style="fill:#FFFFFF;" d="M243.936,383.237h-87.233c-2.662,0-4.812,2.156-4.812,4.812v34.491c0,2.656,2.15,4.813,4.812,4.813
		h87.233c2.656,0,4.812-2.157,4.812-4.813v-34.491C248.748,385.393,246.592,383.237,243.936,383.237L243.936,383.237z"/>
	<path style="fill:#FFFFFF;" d="M79.236,339.99v30.547c0,2.662,2.157,4.812,4.813,4.812h31.487c2.656,0,4.813-2.149,4.813-4.812
		V339.99c0-2.658-2.157-4.813-4.813-4.813H84.054C81.393,335.177,79.236,337.326,79.236,339.99L79.236,339.99z"/>
	<path style="fill:#FFFFFF;" d="M180.611,339.99v30.547c0,2.662,2.157,4.812,4.812,4.812h34.859c2.661,0,4.817-2.149,4.817-4.812
		V339.99c0-2.658-2.157-4.813-4.817-4.813h-34.859C182.766,335.177,180.611,337.326,180.611,339.99L180.611,339.99z"/>
	<path style="fill:#FFFFFF;" d="M351.172,322.476v-34.491c0-2.656-2.156-4.812-4.812-4.812h-32.538
		c-2.657,0-4.814,2.156-4.814,4.812v34.491c0,2.656,2.157,4.814,4.814,4.814h32.538C349.018,327.29,351.172,325.133,351.172,322.476
		L351.172,322.476z"/>
	<path style="fill:#FFFFFF;" d="M261.448,427.354h34.863c2.656,0,4.812-2.157,4.812-4.813V388.05c0-2.657-2.157-4.812-4.812-4.812
		h-34.863c-2.656,0-4.813,2.156-4.813,4.812v34.491C256.634,425.196,258.792,427.354,261.448,427.354L261.448,427.354z"/>
	<path style="fill:#FFFFFF;" d="M144.003,322.476v-34.491c0-2.656-2.156-4.812-4.813-4.812h-34.863
		c-2.656,0-4.813,2.156-4.813,4.812v34.491c0,2.656,2.157,4.814,4.813,4.814h34.863C141.847,327.29,144.003,325.133,144.003,322.476
		L144.003,322.476z"/>
	<path style="fill:#FFFFFF;" d="M50.179,375.348h16.363c2.656,0,4.812-2.149,4.812-4.812V339.99c0-2.658-2.156-4.813-4.812-4.813
		H50.179c-2.656,0-4.811,2.156-4.811,4.813v30.547C45.368,373.194,47.523,375.348,50.179,375.348L50.179,375.348z"/>
	<path style="fill:#FFFFFF;" d="M50.179,427.354h36.635c2.657,0,4.813-2.157,4.813-4.813V388.05c0-2.657-2.156-4.812-4.813-4.812
		H50.179c-2.656,0-4.811,2.156-4.811,4.812v34.491C45.368,425.196,47.523,427.354,50.179,427.354L50.179,427.354z"/>
	<path style="fill:#FFFFFF;" d="M50.179,327.29h36.635c2.657,0,4.813-2.158,4.813-4.814v-34.491c0-2.656-2.156-4.812-4.813-4.812
		H50.179c-2.656,0-4.811,2.156-4.811,4.812v34.491C45.368,325.133,47.523,327.29,50.179,327.29L50.179,327.29z"/>
	<path style="fill:#FFFFFF;" d="M196.377,322.476v-34.491c0-2.656-2.156-4.812-4.811-4.812h-34.864
		c-2.656,0-4.812,2.156-4.812,4.812v34.491c0,2.656,2.157,4.814,4.812,4.814h34.864C194.222,327.29,196.377,325.133,196.377,322.476
		L196.377,322.476z"/>
	<path style="fill:#FFFFFF;" d="M309.01,388.05v34.491c0,2.656,2.151,4.813,4.814,4.813h32.538c2.656,0,4.812-2.157,4.812-4.813
		V388.05c0-2.657-2.156-4.812-4.812-4.812h-32.538C311.161,383.237,309.01,385.393,309.01,388.05L309.01,388.05z"/>
	<path style="fill:#FFFFFF;" d="M272.656,335.177h-34.864c-2.656,0-4.812,2.149-4.812,4.813v30.547c0,2.657,2.156,4.812,4.812,4.812
		h34.864c2.662,0,4.814-2.156,4.814-4.812V339.99C277.474,337.326,275.318,335.177,272.656,335.177L272.656,335.177z"/>
	<path style="fill:#FFFFFF;" d="M248.748,322.476v-34.491c0-2.656-2.15-4.812-4.812-4.812h-34.858c-2.661,0-4.813,2.156-4.813,4.812
		v34.491c0,2.656,2.152,4.814,4.813,4.814h34.858C246.592,327.29,248.748,325.133,248.748,322.476L248.748,322.476z"/>
	<path style="fill:#FFFFFF;" d="M346.361,335.177h-56.193c-2.656,0-4.812,2.149-4.812,4.813v30.547c0,2.657,2.157,4.812,4.812,4.812
		h56.193c2.656,0,4.812-2.156,4.812-4.812V339.99C351.172,337.326,349.018,335.177,346.361,335.177L346.361,335.177z"/>
	<path style="fill:#FFFFFF;" d="M301.124,322.476v-34.491c0-2.656-2.157-4.812-4.812-4.812h-34.863
		c-2.656,0-4.813,2.156-4.813,4.812v34.491c0,2.656,2.157,4.814,4.813,4.814h34.863C298.967,327.29,301.124,325.133,301.124,322.476
		L301.124,322.476z"/>
</g>
<path d="M479.805,238.228h-18.466c-5.073-32.87-33.676-58.125-68.096-58.125h-229.35c-16.649,0-32.088-6.617-43.472-18.634
	c-3.97-4.189-10.581-4.369-14.773-0.399c-4.189,3.969-4.368,10.582-0.399,14.772c15.148,15.989,36.522,25.159,58.643,25.159h229.351
	c22.85,0,42.009,15.949,46.822,37.227H32.196C14.443,238.228,0,252.633,0,270.34v169.844c0,17.706,14.443,32.11,32.196,32.11
	h447.609c17.752,0,32.194-14.404,32.194-32.109V270.34C512,252.633,497.557,238.228,479.805,238.228z M491.102,440.185
	c0,6.182-5.068,11.211-11.297,11.211H32.196c-6.23,0-11.298-5.029-11.298-11.211V270.34c0-6.183,5.069-11.214,11.298-11.214h419.362
	c0.044,0.001,0.087,0.006,0.132,0.006c0.045,0,0.087-0.006,0.132-0.006h27.983c6.23,0,11.297,5.03,11.297,11.214v169.845H491.102z"
	/>
<path d="M461.621,272.725h-24.272c-3.337,0-6.423,1.074-8.953,2.88c-2.529-1.806-5.612-2.88-8.949-2.88h-23.209
	c-8.524,0-15.46,6.935-15.46,15.46v34.095c0,3.338,1.074,6.424,2.881,8.954c-1.807,2.53-2.881,5.615-2.881,8.953v30.151
	c0,3.34,1.075,6.426,2.882,8.956c-1.807,2.53-2.882,5.616-2.882,8.955v34.093c0,8.526,6.936,15.462,15.46,15.462h23.209
	c3.336,0,6.42-1.074,8.949-2.88c2.53,1.806,5.615,2.88,8.953,2.88h24.272c8.524,0,15.459-6.936,15.459-15.462v-34.093
	c0-3.338-1.075-6.425-2.882-8.955c1.807-2.53,2.882-5.616,2.882-8.956v-30.151c0-3.337-1.074-6.423-2.88-8.953
	c1.806-2.53,2.88-5.615,2.88-8.954v-34.095C477.081,279.66,470.146,272.725,461.621,272.725z M456.183,345.626v19.273h-13.393
	v-19.273H456.183z M414.004,345.626v19.273h-12.327v-19.273H414.004z M442.789,293.623h13.393v23.219h-13.393V293.623z
	 M401.678,293.623h12.327v23.219h-12.327V293.623z M414.004,416.905h-12.327v-23.219h12.327V416.905z M456.183,416.905h-13.393
	v-23.219h13.393V416.905z"/>
<path d="M346.362,272.725h-32.538c-3.258,0-6.275,1.035-8.756,2.781c-2.482-1.746-5.497-2.781-8.756-2.781h-34.863
	c-3.258,0-6.275,1.035-8.756,2.781c-2.482-1.746-5.497-2.781-8.756-2.781h-34.858c-3.258,0-6.275,1.034-8.756,2.781
	c-2.482-1.746-5.497-2.781-8.755-2.781h-34.864c-3.258,0-6.275,1.035-8.756,2.781c-2.482-1.746-5.498-2.781-8.756-2.781h-34.863
	c-3.258,0-6.275,1.035-8.756,2.781c-2.482-1.746-5.498-2.781-8.756-2.781H50.179c-8.415,0-15.26,6.846-15.26,15.261v34.491
	c0,3.259,1.035,6.276,2.782,8.757c-1.746,2.482-2.782,5.498-2.782,8.757v30.547c0,3.258,1.035,6.275,2.782,8.756
	c-1.746,2.482-2.782,5.498-2.782,8.756v34.491c0,8.416,6.846,15.262,15.26,15.262h36.635c3.258,0,6.275-1.035,8.756-2.781
	c2.482,1.746,5.497,2.781,8.756,2.781h34.863c3.258,0,6.275-1.035,8.756-2.781c2.482,1.746,5.497,2.781,8.756,2.781h87.233
	c3.258,0,6.275-1.035,8.756-2.781c2.482,1.746,5.498,2.781,8.756,2.781h34.863c3.258,0,6.275-1.035,8.756-2.781
	c2.482,1.746,5.498,2.781,8.756,2.781h32.538c8.415,0,15.26-6.846,15.26-15.262V388.05c0-3.259-1.035-6.275-2.781-8.756
	c1.746-2.482,2.781-5.498,2.781-8.756v-30.547c0-3.259-1.035-6.276-2.781-8.757c1.746-2.482,2.781-5.498,2.781-8.757v-34.491
	C361.621,279.571,354.775,272.725,346.362,272.725z M267.021,345.626v19.273H243.43v-19.273H267.021z M214.65,345.626v19.273H191.06
	v-19.273H214.65z M162.275,345.626v19.273h-23.591v-19.273H162.275z M89.685,345.626h20.215v19.273H89.685V345.626z
	 M295.805,364.899v-19.273h44.918v19.273H295.805z M55.817,364.899v-19.273h5.089v19.273H55.817z M319.459,293.623h21.265v23.219
	h-21.265V293.623z M267.083,293.623h23.591v23.219h-23.591V293.623z M214.713,293.623h23.585v23.219h-23.585V293.623z
	 M162.338,293.623h23.59v23.219h-23.59V293.623z M109.963,293.623h23.591v23.219h-23.591
	C109.963,316.841,109.963,293.623,109.963,293.623z M55.817,293.623h25.361v23.219H55.817V293.623z M81.178,416.905H55.817v-23.219
	h25.361V416.905z M133.554,416.905h-23.591v-23.219h23.591V416.905z M238.299,416.905h-75.96v-23.219h75.96V416.905z
	 M290.675,416.905h-23.591v-23.219h23.591V416.905z M340.723,416.905h-21.265v-23.219h21.265V416.905z"/>
<path d="M98.171,155.681c1.219,0,2.459-0.215,3.667-0.668c5.404-2.025,8.142-8.048,6.117-13.452
	c-2.489-6.638-3.75-13.643-3.75-20.822c-0.001-15.975,6.219-31.051,17.516-42.45c11.302-11.405,26.278-17.686,42.172-17.686h204.489
	c5.77,0,10.449-4.678,10.449-10.449s-4.679-10.449-10.449-10.449H163.892c-21.511,0-41.76,8.479-57.016,23.875
	c-15.199,15.339-23.57,35.639-23.569,57.16c0,9.691,1.709,19.164,5.078,28.156C89.959,153.093,93.94,155.681,98.171,155.681z"/>
<g>
</g>
<g>
</g>
<g>
</g>
<g>
</g>
<g>
</g>
<g>
</g>
<g>
</g>
<g>
</g>
<g>
</g>
<g>
</g>
<g>
</g>
<g>
</g>
<g>
</g>
<g>
</g>
<g>
</g>
</svg>
