<?xml version="1.0" encoding="iso-8859-1"?>
<!-- Generator: Adobe Illustrator 19.0.0, SVG Export Plug-In . SVG Version: 6.00 Build 0)  -->
<svg version="1.1" id="Layer_1" xmlns="http://www.w3.org/2000/svg" xmlns:xlink="http://www.w3.org/1999/xlink" x="0px" y="0px"
	 viewBox="0 0 512 512" style="enable-background:new 0 0 512 512;" xml:space="preserve">
<g>
	<path style="fill:#E4EAF6;" d="M119.188,423.69c-1.503-3.324-2.888-6.712-4.15-10.161
		C116.299,416.978,117.685,420.366,119.188,423.69z"/>
	<path style="fill:#E4EAF6;" d="M190.938,497.202c-2.187-1.054-4.344-2.158-6.471-3.314
		C186.594,495.042,188.753,496.148,190.938,497.202z"/>
	<path style="fill:#E4EAF6;" d="M256,0c-9.313,0-18.425,0.855-27.27,2.479C237.575,0.855,246.687,0,256,0L256,0z"/>
	<path style="fill:#E4EAF6;" d="M115.037,413.529c-1.683-4.597-3.148-9.299-4.382-14.094
		C111.89,404.231,113.354,408.932,115.037,413.529z"/>
	<path style="fill:#E4EAF6;" d="M199.59,10.975c1.592-0.647,3.192-1.276,4.811-1.868C202.783,9.699,201.182,10.328,199.59,10.975z"
		/>
	<path style="fill:#E4EAF6;" d="M204.402,9.106c4.597-1.683,9.299-3.148,14.094-4.382C213.7,5.959,208.999,7.423,204.402,9.106z"/>
	<path style="fill:#E4EAF6;" d="M256,0L256,0c10.595,0,20.921,1.128,30.897,3.217c-68.052,14.248-119.172,74.567-119.172,146.852
		v211.862c0,72.286,51.121,132.605,119.172,146.852C276.921,510.872,266.595,512,256,512l0,0
		c82.881,0,150.069-67.188,150.069-150.069V150.069C406.069,67.188,338.881,0,256,0z M273.655,167.724
		c0,9.751-7.904,17.655-17.655,17.655c-9.751,0-17.655-7.904-17.655-17.655v-35.309v-0.001v-26.483
		c0-9.751,7.904-17.655,17.655-17.655l0,0c1.218,0,2.409,0.124,3.559,0.359c1.15,0.235,2.258,0.582,3.314,1.028
		c1.056,0.447,2.06,0.993,2.999,1.628c2.818,1.903,5.056,4.599,6.397,7.768c0.893,2.112,1.387,4.435,1.387,6.872V167.724z"/>
	<path style="fill:#E4EAF6;" d="M218.495,4.725c1.46-0.375,2.931-0.722,4.407-1.055C221.426,4.002,219.955,4.349,218.495,4.725z"/>
	<path style="fill:#E4EAF6;" d="M218.495,507.275c-4.794-1.234-9.497-2.698-14.094-4.382
		C208.999,504.577,213.7,506.041,218.495,507.275z"/>
	<path style="fill:#E4EAF6;" d="M105.931,361.931c0,12.95,1.641,25.517,4.725,37.504
		C107.572,387.448,105.931,374.881,105.931,361.931L105.931,361.931z"/>
	<path style="fill:#E4EAF6;" d="M204.402,502.894c-3.448-1.262-6.836-2.647-10.161-4.15
		C197.565,500.246,200.953,501.632,204.402,502.894z"/>
	<path style="fill:#E4EAF6;" d="M256,512L256,512c-12.95,0-25.517-1.641-37.504-4.725C230.483,510.359,243.05,512,256,512z"/>
	<path style="fill:#E4EAF6;" d="M124.043,433.463c-1.155-2.126-2.26-4.284-3.314-6.471
		C121.783,429.178,122.889,431.337,124.043,433.463z"/>
	<path style="fill:#E4EAF6;" d="M184.468,18.112c2.126-1.155,4.284-2.26,6.471-3.314C188.753,15.852,186.594,16.958,184.468,18.112z
		"/>
</g>
<path style="fill:#D1D9E9;" d="M167.724,361.931V150.069c0-72.286,51.121-132.604,119.172-146.851C276.921,1.128,266.595,0,256,0
	c-9.313,0-18.425,0.855-27.27,2.479c-1.956,0.359-3.898,0.757-5.827,1.191c-1.476,0.332-2.947,0.679-4.407,1.055
	c-4.794,1.234-9.497,2.698-14.094,4.382c-1.619,0.593-3.22,1.223-4.811,1.868c-1.799,0.73-3.585,1.484-5.348,2.282
	c-1.108,0.501-2.209,1.015-3.303,1.542c-2.187,1.054-4.344,2.158-6.471,3.314c-4.253,2.311-8.382,4.82-12.373,7.517
	c-0.998,0.674-1.987,1.361-2.968,2.058c-38.248,27.199-63.197,71.876-63.197,122.382l0,0v211.862c0,12.95,1.641,25.517,4.725,37.505
	c1.234,4.794,2.698,9.497,4.382,14.094c1.262,3.448,2.647,6.836,4.15,10.161c0.501,1.108,1.015,2.209,1.542,3.303
	c1.054,2.187,2.158,4.344,3.314,6.471c4.043,7.443,8.697,14.505,13.895,21.119c1.485,1.89,3.015,3.743,4.587,5.558
	c0.787,0.908,1.583,1.805,2.39,2.694c3.23,3.553,6.627,6.951,10.18,10.18c0.888,0.808,1.786,1.604,2.694,2.39
	c1.815,1.572,3.669,3.102,5.558,4.587c6.614,5.198,13.676,9.853,21.119,13.895c2.126,1.155,4.284,2.26,6.471,3.314
	c1.094,0.526,2.195,1.041,3.303,1.542c3.324,1.503,6.712,2.888,10.161,4.15c4.597,1.683,9.299,3.148,14.094,4.382
	C230.483,510.359,243.05,512,256,512c10.595,0,20.921-1.128,30.897-3.217C218.845,494.536,167.724,434.217,167.724,361.931z"/>
<g>
	<path style="fill:#96A5B9;" d="M272.268,99.059c-1.341-3.168-3.578-5.864-6.397-7.768
		C268.689,93.195,270.927,95.891,272.268,99.059z"/>
	<path style="fill:#96A5B9;" d="M259.559,88.634c1.15,0.235,2.258,0.582,3.314,1.028C261.816,89.217,260.707,88.87,259.559,88.634z"
		/>
	<path style="fill:#96A5B9;" d="M273.655,105.931v26.483c0,9.751-7.904,17.655-17.655,17.655l0,0
		c-9.75,0-17.654-7.904-17.655-17.654v35.309c0,9.751,7.904,17.655,17.655,17.655c9.751,0,17.655-7.904,17.655-17.655V105.931
		c0-2.438-0.494-4.76-1.387-6.872C273.161,101.171,273.655,103.494,273.655,105.931z"/>
</g>
<path style="fill:#AFBBD0;" d="M256,150.069L256,150.069c9.751,0,17.655-7.904,17.655-17.655v-26.483
	c0-2.438-0.494-4.76-1.387-6.872c-1.34-3.168-3.578-5.864-6.397-7.768c-0.939-0.634-1.943-1.181-2.999-1.628
	c-1.056-0.447-2.165-0.793-3.314-1.028c-1.15-0.235-2.34-0.359-3.559-0.359l0,0c-9.751,0-17.655,7.904-17.655,17.655v26.483v0.001
	C238.346,142.165,246.25,150.069,256,150.069z"/>
<g>
</g>
<g>
</g>
<g>
</g>
<g>
</g>
<g>
</g>
<g>
</g>
<g>
</g>
<g>
</g>
<g>
</g>
<g>
</g>
<g>
</g>
<g>
</g>
<g>
</g>
<g>
</g>
<g>
</g>
</svg>
