<?xml version="1.0" encoding="iso-8859-1"?>
<!-- Generator: Adobe Illustrator 19.0.0, SVG Export Plug-In . SVG Version: 6.00 Build 0)  -->
<svg version="1.1" id="Layer_1" xmlns="http://www.w3.org/2000/svg" xmlns:xlink="http://www.w3.org/1999/xlink" x="0px" y="0px"
	 viewBox="0 0 505 505" style="enable-background:new 0 0 505 505;" xml:space="preserve">
<circle style="fill:#FFD05B;" cx="252.5" cy="252.5" r="252.5"/>
<path style="fill:#2B3B4E;" d="M318.1,423.3c-5.7,0-11.5-0.6-17.4-1.7l-60.1-12.2l3.7-18.3l60.1,12.2c35.7,7.2,70.8-14.7,79.9-50
	l6.4-24.8l18.1,4.7l-6.4,24.8C392.3,397,357.1,423.3,318.1,423.3z"/>
<path style="fill:#FF7058;" d="M405.6,300.6h-24.2v-57.9c0-72.9-57.8-132.2-128.9-132.2s-128.9,59.3-128.9,132.2v57.9H99.4v-57.9
	c0-86,68.7-156,153.1-156s153.1,70,153.1,156V300.6z"/>
<path style="fill:#324A5E;" d="M345.7,128l-10.5,10.5c-5.5,5.5-14,6.5-20.5,2.3c-18-11.7-39.4-18.5-62.2-18.5s-44.2,6.8-62.2,18.5
	c-6.5,4.2-15,3.1-20.5-2.3L159.3,128c-7.4-7.4-6.1-19.7,2.6-25.6c26-17.5,57.2-27.7,90.6-27.7s64.6,10.2,90.6,27.7
	C351.8,108.3,353.1,120.6,345.7,128z"/>
<path style="fill:#FFFFFF;" d="M404.2,343.6l-36.1,6.3v-76.6l36.1,6.3c6.4,1.1,11.1,6.7,11.1,13.2v37.7
	C415.3,336.9,410.6,342.5,404.2,343.6z"/>
<path style="fill:#2B3B4E;" d="M371.8,365.6h-52.2c-3.5,0-6.4-2.9-6.4-6.4v-95.3c0-3.5,2.9-6.4,6.4-6.4h52.2c1.3,0,2.3,1,2.3,2.3
	v103.4C374.2,364.6,373.1,365.6,371.8,365.6z"/>
<path style="fill:#324A5E;" d="M339.8,257.6h-1.4c-13.9,0-25.1,11.3-25.1,25.1v57.8c0,13.9,11.3,25.1,25.1,25.1h1.4V257.6z"/>
<path style="fill:#FFFFFF;" d="M100.8,343.6l36.1,6.3v-76.6l-36.1,6.3c-6.4,1.1-11.1,6.7-11.1,13.2v37.7
	C89.7,336.9,94.4,342.5,100.8,343.6z"/>
<path style="fill:#2B3B4E;" d="M133.2,365.6h52.2c3.5,0,6.4-2.9,6.4-6.4v-95.3c0-3.5-2.9-6.4-6.4-6.4h-52.2c-1.3,0-2.3,1-2.3,2.3
	v103.4C130.8,364.6,131.9,365.6,133.2,365.6z"/>
<g>
	<path style="fill:#324A5E;" d="M165.2,257.6h1.4c13.9,0,25.1,11.3,25.1,25.1v57.8c0,13.9-11.3,25.1-25.1,25.1h-1.4V257.6z"/>
	<path style="fill:#324A5E;" d="M292.8,414.4c-5.7,14.3-25.7,19.9-44.7,12.4s-29.8-25.2-24.2-39.5c5.7-14.3,25.7-19.9,44.7-12.4
		C287.7,382.4,298.5,400.1,292.8,414.4z"/>
</g>
<g>
</g>
<g>
</g>
<g>
</g>
<g>
</g>
<g>
</g>
<g>
</g>
<g>
</g>
<g>
</g>
<g>
</g>
<g>
</g>
<g>
</g>
<g>
</g>
<g>
</g>
<g>
</g>
<g>
</g>
</svg>
