<?xml version="1.0" encoding="iso-8859-1"?>
<!-- Generator: Adobe Illustrator 19.0.0, SVG Export Plug-In . SVG Version: 6.00 Build 0)  -->
<svg version="1.1" id="Layer_1" xmlns="http://www.w3.org/2000/svg" xmlns:xlink="http://www.w3.org/1999/xlink" x="0px" y="0px"
	 viewBox="0 0 505 505" style="enable-background:new 0 0 505 505;" xml:space="preserve">
<circle style="fill:#324A5E;" cx="252.5" cy="252.5" r="252.5"/>
<path style="fill:#FF7058;" d="M369.5,124.9c0,17.6-14.3,31.9-31.8,31.9H189.1c-7.8,0-14.2,6.4-14.2,14.1c0,7.8,6.4,14.2,14.2,14.2
	h93.1c15,0,27.3,12.3,27.3,27.3v15.5h-13.2v-15.4c0-7.8-6.4-14.2-14.1-14.2h-93.1c-15.1,0-27.3-12.3-27.3-27.3s12.3-27.3,27.3-27.3
	h148.5c10.3,0,18.7-8.4,18.7-18.7s-8.4-18.7-18.7-18.7h-64.1c-15.1,0-27.3-12.3-27.3-27.3V0.1c2.1,0,4.1-0.1,6.2-0.1
	c2.3,0,4.6,0,6.9,0.1V79c0,7.8,6.4,14.2,14.2,14.2h64.1C355.2,93.1,369.5,107.4,369.5,124.9z"/>
<path style="fill:#E6E9EE;" d="M402.8,417.4H98.7c-1.8,0-3.3-1.5-3.3-3.3V225.2c0-1.8,1.5-3.3,3.3-3.3h304.1c1.8,0,3.3,1.5,3.3,3.3
	V414C406.2,415.9,404.7,417.4,402.8,417.4z"/>
<g>
	<rect x="117.7" y="241.1" style="fill:#ACB3BA;" width="27.1" height="27.1"/>
	<rect x="165.5" y="241.1" style="fill:#ACB3BA;" width="27.1" height="27.1"/>
	<rect x="213.3" y="241.1" style="fill:#ACB3BA;" width="27.1" height="27.1"/>
	<rect x="261.1" y="241.1" style="fill:#ACB3BA;" width="27.1" height="27.1"/>
	<rect x="117.7" y="284.4" style="fill:#ACB3BA;" width="74.9" height="27.1"/>
	<rect x="213.3" y="284.4" style="fill:#ACB3BA;" width="27.1" height="27.1"/>
	<rect x="261.1" y="284.4" style="fill:#ACB3BA;" width="27.1" height="27.1"/>
	<rect x="308.9" y="284.4" style="fill:#ACB3BA;" width="27.1" height="27.1"/>
	<rect x="356.7" y="284.4" style="fill:#ACB3BA;" width="27.1" height="27.1"/>
	<rect x="308.9" y="241.1" style="fill:#ACB3BA;" width="27.1" height="27.1"/>
	<rect x="356.7" y="241.1" style="fill:#ACB3BA;" width="27.1" height="27.1"/>
	<rect x="117.7" y="327.8" style="fill:#ACB3BA;" width="27.1" height="27.1"/>
	<rect x="165.5" y="327.8" style="fill:#ACB3BA;" width="27.1" height="27.1"/>
	<rect x="213.3" y="327.8" style="fill:#ACB3BA;" width="27.1" height="27.1"/>
	<rect x="261.1" y="327.8" style="fill:#ACB3BA;" width="27.1" height="27.1"/>
	<rect x="308.9" y="327.8" style="fill:#ACB3BA;" width="27.1" height="27.1"/>
	<rect x="117.7" y="371.1" style="fill:#ACB3BA;" width="27.1" height="27.1"/>
	<rect x="165.5" y="371.1" style="fill:#ACB3BA;" width="122.7" height="27.1"/>
	<rect x="308.9" y="371.1" style="fill:#ACB3BA;" width="27.1" height="27.1"/>
	<rect x="356.7" y="327.8" style="fill:#ACB3BA;" width="27.1" height="70.5"/>
</g>
<g>
</g>
<g>
</g>
<g>
</g>
<g>
</g>
<g>
</g>
<g>
</g>
<g>
</g>
<g>
</g>
<g>
</g>
<g>
</g>
<g>
</g>
<g>
</g>
<g>
</g>
<g>
</g>
<g>
</g>
</svg>
