<?xml version="1.0" encoding="iso-8859-1"?>
<!-- Generator: Adobe Illustrator 19.0.0, SVG Export Plug-In . SVG Version: 6.00 Build 0)  -->
<svg version="1.1" id="Layer_1" xmlns="http://www.w3.org/2000/svg" xmlns:xlink="http://www.w3.org/1999/xlink" x="0px" y="0px"
	 viewBox="0 0 310.115 310.115" style="enable-background:new 0 0 310.115 310.115;" xml:space="preserve">
<g>
	<path style="fill:#D07C40;" d="M309.691,116.824c-1.401-4.069-3.605-7.906-6.852-11.153L175.595,9.17
		c-16.594-12.226-25.051-12.226-41.364,0L7.537,105.671c-3.247,3.247-5.46,7.084-6.862,11.153l154.237,135.304
		C154.913,252.129,309.691,116.824,309.691,116.824z"/>
	<path style="fill:#E4E7E7;" d="M39.082,29.852h231.95v193.282H39.082V29.852z"/>
	<path style="fill:#E8AB54;" d="M16.351,297.203l138.523-107.905l138.88,107.915c5.132-2.619,9.346-6.678,12.158-11.704
		L175.595,183.152c-16.449-12.139-25.099-12.332-41.364,0L4.116,285.345C6.919,290.428,11.152,294.555,16.351,297.203z"/>
	<path style="fill:#C2C5C5;" d="M77.741,78.175v19.329h154.634V78.175H77.741z M77.741,136.152h154.634v-19.32H77.741V136.152z"/>
	<path style="fill:#E8AB54;" d="M155.058,232.799l154.634-115.975v164.298c0,16.014-12.98,28.994-28.994,28.994H29.418
		c-16.014,0-28.994-12.98-28.994-28.994V116.824C0.424,116.824,155.058,232.799,155.058,232.799z"/>
	<path style="fill:#F4B459;" d="M283.79,309.796c6.263-0.667,11.926-3.286,16.343-7.306L154.874,189.288L9.953,302.49
		c4.426,4.03,10.08,6.64,16.362,7.316L283.79,309.796z"/>
	<path style="fill:#F9D7A7;" d="M4.116,295.009c2.803,5.084,7.045,9.21,12.235,11.868l138.523-107.896l138.88,107.905
		c5.132-2.619,9.346-6.678,12.158-11.704L175.595,192.798c-18.256-13.521-22.683-14.139-41.364,0
		C134.23,192.798,4.116,295.009,4.116,295.009z"/>
</g>
<g>
</g>
<g>
</g>
<g>
</g>
<g>
</g>
<g>
</g>
<g>
</g>
<g>
</g>
<g>
</g>
<g>
</g>
<g>
</g>
<g>
</g>
<g>
</g>
<g>
</g>
<g>
</g>
<g>
</g>
</svg>
