<?xml version="1.0" encoding="iso-8859-1"?>
<!-- Generator: Adobe Illustrator 19.0.0, SVG Export Plug-In . SVG Version: 6.00 Build 0)  -->
<svg version="1.1" id="Layer_1" xmlns="http://www.w3.org/2000/svg" xmlns:xlink="http://www.w3.org/1999/xlink" x="0px" y="0px"
	 viewBox="0 0 504 504" style="enable-background:new 0 0 504 504;" xml:space="preserve">
<g>
	<polygon style="fill:#EF683F;" points="407.2,172 504,270.4 252,492.8 0,270.4 96.8,172 	"/>
	<polygon style="fill:#EF683F;" points="407.2,172 504,270.4 252,492.8 0,270.4 96.8,172 	"/>
</g>
<polyline style="fill:#E84621;" points="504,269.6 252,492.8 0,269.6 "/>
<polygon style="fill:#EF683F;" points="407.2,172 400,270.4 252,492.8 112,270.4 96.8,172 "/>
<polygon style="fill:#EA1F0A;" points="407.2,172 400,270.4 252,172 112,270.4 96.8,172 "/>
<polyline style="fill:#AA2011;" points="400,269.6 252,492.8 112,269.6 "/>
<polyline style="fill:#EDA785;" points="50.4,269.6 252,492.8 0,270.4 96.8,172 "/>
<polyline style="fill:#AA2011;" points="453.6,269.6 252,492.8 503.2,269.6 407.2,172 "/>
<polyline style="fill:#E84621;" points="216,106.4 252.8,11.2 288,106.4 "/>
<polyline style="fill:#AA2011;" points="248.8,106.4 252.8,11.2 288,106.4 "/>
<polyline style="fill:#E84621;" points="114.4,150.4 95.2,50.4 175.2,112 "/>
<polyline style="fill:#AA2011;" points="142.4,132.8 95.2,50.4 175.2,112 "/>
<polyline style="fill:#E84621;" points="389.6,150.4 408.8,50.4 328.8,112 "/>
<polyline style="fill:#AA2011;" points="361.6,132.8 408.8,50.4 328.8,112 "/>
<g>
</g>
<g>
</g>
<g>
</g>
<g>
</g>
<g>
</g>
<g>
</g>
<g>
</g>
<g>
</g>
<g>
</g>
<g>
</g>
<g>
</g>
<g>
</g>
<g>
</g>
<g>
</g>
<g>
</g>
</svg>
