<?xml version="1.0" encoding="iso-8859-1"?>
<!-- Generator: Adobe Illustrator 19.0.0, SVG Export Plug-In . SVG Version: 6.00 Build 0)  -->
<svg version="1.1" id="Layer_1" xmlns="http://www.w3.org/2000/svg" xmlns:xlink="http://www.w3.org/1999/xlink" x="0px" y="0px"
	 viewBox="0 0 504.124 504.124" style="enable-background:new 0 0 504.124 504.124;" xml:space="preserve">
<circle style="fill:#0EE565;" cx="252.062" cy="252.062" r="252.062"/>
<path style="fill:#00C67F;" d="M73.83,73.823c98.43-98.43,258.032-98.43,356.462,0c98.438,98.438,98.446,258.032,0,356.478"/>
<path style="fill:#363D3B;" d="M274.361,216.915c-30.594-12.249-36.714-18.125-36.714-23.631c0-10.413,13.414-11.973,21.425-11.973
	c20.669,0,34.273,6.357,43.292,10.555l2.19,1.032c3.868,1.772,8.287,1.757,12.13,0.016c3.836-1.772,6.751-5.104,7.948-9.169
	l10.248-34.895c1.977-6.766-2.922-13.982-9.224-17.156c-13.627-6.798-30.271-11.099-46.025-12.997V96.989
	c0-8.058-3.017-14.281-11.075-14.281h-31.09c-8.058,0-12.973,6.223-12.973,14.281v25.6c-39.385,10.973-61.857,39.755-61.857,75.997
	c0,48.183,39.802,68.907,74.776,81.566c31.752,11.587,31.555,20.37,31.555,24.6c0,11.335-13.903,15.368-25.718,15.368
	c-17.069,0-35.99-5.341-51.791-14.659c-3.899-2.292-8.657-2.678-12.839-0.985c-4.183,1.678-7.389,5.183-8.625,9.523l-10.24,35.643
	c-1.749,6.105,2.599,12.642,7.869,16.156c13.485,8.995,33.241,15.549,56.871,18.07v23.261c0,8.066,4.75,14.289,12.8,14.289h28.995
	c8.05,0,13.344-6.223,13.344-14.281v-27.341c39.385-10.831,64.709-40.873,64.709-79.202
	C344.34,249.872,307.05,229.18,274.361,216.915z"/>
<path style="fill:#1D2321;" d="M274.361,216.915c-30.594-12.249-36.714-18.125-36.714-23.631c0-10.413,13.414-11.973,21.425-11.973
	c20.669,0,34.273,6.357,43.292,10.555l2.19,1.032c3.868,1.772,8.287,1.757,12.13,0.016c3.836-1.772,6.751-5.104,7.948-9.169
	l10.248-34.895c1.977-6.766-2.922-13.982-9.224-17.156c-13.627-6.798-30.271-11.099-46.025-12.997V96.989
	c0-8.058-3.017-14.281-11.075-14.281h-31.09c-8.058,0-12.973,6.223-12.973,14.281v25.6c-31.508,7.656-46.285,23.993-55.619,45.466
	l168.109,168.527c5.404-10.744,8.168-22.867,8.168-35.99C345.151,249.872,307.05,229.18,274.361,216.915z"/>
<circle style="fill:#00C67F;" cx="102.4" cy="252.07" r="21"/>
<circle style="fill:#0EE565;" cx="401.723" cy="252.07" r="21"/>
<g>
</g>
<g>
</g>
<g>
</g>
<g>
</g>
<g>
</g>
<g>
</g>
<g>
</g>
<g>
</g>
<g>
</g>
<g>
</g>
<g>
</g>
<g>
</g>
<g>
</g>
<g>
</g>
<g>
</g>
</svg>
