<?xml version="1.0" encoding="iso-8859-1"?>
<!-- Generator: Adobe Illustrator 19.0.0, SVG Export Plug-In . SVG Version: 6.00 Build 0)  -->
<svg version="1.1" id="Layer_1" xmlns="http://www.w3.org/2000/svg" xmlns:xlink="http://www.w3.org/1999/xlink" x="0px" y="0px"
	 viewBox="0 0 323.162 323.162" style="enable-background:new 0 0 323.162 323.162;" xml:space="preserve">
<g id="XMLID_1298_">
	<g id="XMLID_1299_">
		<g id="XMLID_1300_">
			<g id="XMLID_1301_">
				<circle id="XMLID_1302_" style="fill:#FFE165;" cx="123.083" cy="58.92" r="20.406"/>
				<circle id="XMLID_1303_" style="fill:#FFE165;" cx="161.581" cy="58.92" r="20.406"/>
			</g>
			<circle id="XMLID_1304_" style="fill:#FFE165;" cx="200.08" cy="58.92" r="20.406"/>
		</g>
		<g id="XMLID_1305_">
			<circle id="XMLID_1306_" style="fill:#FFE165;" cx="142.332" cy="32.049" r="20.406"/>
			<circle id="XMLID_1307_" style="fill:#FFE165;" cx="180.831" cy="32.049" r="20.406"/>
		</g>
	</g>
	<rect id="XMLID_598_" x="33.554" y="128.651" style="fill:#FFFEB9;" width="256.056" height="138.816"/>
	<g id="XMLID_1308_">
		<circle id="XMLID_1309_" style="fill:#FFA250;" cx="41.859" cy="131.175" r="23.944"/>
		<circle id="XMLID_1310_" style="fill:#FFA250;" cx="89.748" cy="131.175" r="23.944"/>
		<circle id="XMLID_1311_" style="fill:#FFA250;" cx="137.637" cy="131.175" r="23.944"/>
		<circle id="XMLID_1312_" style="fill:#FFA250;" cx="185.526" cy="131.175" r="23.944"/>
		<circle id="XMLID_1313_" style="fill:#FFA250;" cx="233.415" cy="131.175" r="23.944"/>
		<circle id="XMLID_1314_" style="fill:#FFA250;" cx="281.304" cy="131.175" r="23.944"/>
	</g>
	<path id="XMLID_1315_" style="fill:#FFA250;" d="M274.41,58.662H48.753c-17.032,0-30.838,13.807-30.838,30.839v41.675h287.333V89.5
		C305.248,72.468,291.441,58.662,274.41,58.662z"/>
	<g id="XMLID_1316_">
		<circle id="XMLID_589_" style="fill:#FFA250;" cx="281.304" cy="252.384" r="23.944"/>
		<circle id="XMLID_588_" style="fill:#FFA250;" cx="233.415" cy="252.384" r="23.944"/>
		<circle id="XMLID_587_" style="fill:#FFA250;" cx="185.526" cy="252.384" r="23.944"/>
		<circle id="XMLID_586_" style="fill:#FFA250;" cx="137.637" cy="252.384" r="23.944"/>
		<circle id="XMLID_585_" style="fill:#FFA250;" cx="89.748" cy="252.384" r="23.944"/>
		<circle id="XMLID_584_" style="fill:#FFA250;" cx="41.859" cy="252.384" r="23.944"/>
	</g>
	<path id="XMLID_582_" style="fill:#FFA250;" d="M48.753,302.327H274.41c17.031,0,30.838,8.763,30.838-8.269v-41.675H17.915v41.675
		C17.915,311.09,31.721,302.327,48.753,302.327z"/>
	<g id="XMLID_1319_">
		<path id="XMLID_1318_" style="fill:#5FD2DB;" d="M301.312,311.52H21.851C9.783,311.52,0,301.737,0,289.669l0,0
			c0-12.068,9.783-21.851,21.851-21.851h279.46c12.068,0,21.851,9.783,21.851,21.851l0,0
			C323.163,301.737,313.38,311.52,301.312,311.52z"/>
	</g>
</g>
<g>
</g>
<g>
</g>
<g>
</g>
<g>
</g>
<g>
</g>
<g>
</g>
<g>
</g>
<g>
</g>
<g>
</g>
<g>
</g>
<g>
</g>
<g>
</g>
<g>
</g>
<g>
</g>
<g>
</g>
</svg>
