<?xml version="1.0" encoding="iso-8859-1"?>
<!-- Generator: Adobe Illustrator 19.0.0, SVG Export Plug-In . SVG Version: 6.00 Build 0)  -->
<svg version="1.1" id="Layer_1" xmlns="http://www.w3.org/2000/svg" xmlns:xlink="http://www.w3.org/1999/xlink" x="0px" y="0px"
	 viewBox="0 0 508.609 508.609" style="enable-background:new 0 0 508.609 508.609;" xml:space="preserve">
<path style="fill:#F1F3F7;" d="M336.53,290.246H171.74c-75.613,0-136.646,61.372-136.646,136.646v81.717h438.421v-81.717
	C473.176,351.279,412.143,290.246,336.53,290.246z"/>
<g>
	<circle style="fill:#EEB490;" cx="254.135" cy="277.701" r="61.033"/>
	<circle style="fill:#EEB490;" cx="166.315" cy="167.841" r="35.942"/>
	<circle style="fill:#EEB490;" cx="341.955" cy="167.841" r="35.942"/>
</g>
<path style="fill:#FACCB4;" d="M254.135,46.453L254.135,46.453c-50.861,0-92.228,41.367-92.228,92.228v67.475
	c0,50.861,41.367,92.228,92.228,92.228l0,0c50.861,0,92.228-41.367,92.228-92.228v-67.475
	C346.363,87.82,304.996,46.453,254.135,46.453z"/>
<g>
	<path style="fill:#56545F;" d="M346.363,127.491c-56.964-32.551-127.152-32.551-184.117,0c0-30.177,0-60.016,0-90.193
		c61.372,0,122.744,0,184.117,0C346.363,67.475,346.363,97.314,346.363,127.491z"/>
	<polygon style="fill:#56545F;" points="254.135,0 105.96,32.212 254.135,64.085 402.31,32.212 	"/>
	<path style="fill:#56545F;" d="M112.742,88.837V30.517l-13.563,2.713v55.269c-12.546,3.052-21.701,14.241-21.701,27.465v11.189
		c0,3.73,3.052,6.781,6.781,6.781s6.781-3.052,6.781-6.781v-11.189c0-5.764,3.391-10.85,8.138-13.224v24.413
		c0,3.73,3.052,6.781,6.781,6.781s6.781-3.052,6.781-6.781v-24.413c4.747,2.374,8.138,7.46,8.138,13.224v11.189
		c0,3.73,3.052,6.781,6.781,6.781c3.73,0,6.781-3.052,6.781-6.781v-11.189C134.442,103.078,124.948,91.889,112.742,88.837z"/>
	<path style="fill:#56545F;" d="M35.094,426.893v81.717h112.233V292.281C83.242,304.148,35.094,359.756,35.094,426.893z"/>
	<path style="fill:#56545F;" d="M473.176,426.893c0-67.136-48.487-122.744-112.233-134.612v216.328h112.233V426.893z"/>
</g>
<g>
</g>
<g>
</g>
<g>
</g>
<g>
</g>
<g>
</g>
<g>
</g>
<g>
</g>
<g>
</g>
<g>
</g>
<g>
</g>
<g>
</g>
<g>
</g>
<g>
</g>
<g>
</g>
<g>
</g>
</svg>
