<?xml version="1.0" encoding="iso-8859-1"?>
<!-- Generator: Adobe Illustrator 19.0.0, SVG Export Plug-In . SVG Version: 6.00 Build 0)  -->
<svg version="1.1" id="Layer_1" xmlns="http://www.w3.org/2000/svg" xmlns:xlink="http://www.w3.org/1999/xlink" x="0px" y="0px"
	 viewBox="0 0 393.051 393.051" style="enable-background:new 0 0 393.051 393.051;" xml:space="preserve">
<path style="fill:#3C3851;" d="M196.525,280.113c62.901,0,114.23-19.653,118.432-89.341
	c-24.113-53.204-68.137-98.521-118.432-98.521s-94.319,45.576-118.432,98.521C82.295,260.461,133.624,280.113,196.525,280.113z"/>
<g>
	<path style="fill:#C19D7B;" d="M62.901,256.776l82.489-19.911c-2.844,6.659-4.396,14.028-4.396,21.721v134.465h-121.6v-76.283
		C19.394,288,37.495,262.788,62.901,256.776z"/>
	<path style="fill:#C19D7B;" d="M373.657,316.768v76.283H251.798v-134.4c0.065-7.693-1.487-15.063-4.267-21.786l82.618,19.911
		C355.556,263.111,373.657,288,373.657,316.768z"/>
</g>
<path style="fill:#1B9ED6;" d="M196.525,203.055c-30.642,0-55.531,24.889-55.531,55.531v134.465h110.804v-134.4
	C252.057,227.943,227.168,203.055,196.525,203.055z"/>
<g>
	<path style="fill:#EEB490;" d="M240.032,214.238v15.063c0,12.024-4.848,22.949-12.735,30.772
		c-7.887,7.887-18.747,12.735-30.772,12.735c-24.113,0-43.507-19.394-43.507-43.507v-15.063
		c12.218,8.792,27.281,13.964,43.507,13.964S227.814,223.03,240.032,214.238z"/>
	<path style="fill:#EEB490;" d="M122.117,153.794c0,5.754,0.646,11.313,1.875,16.743c-11.055-0.582-20.428-7.305-24.889-16.808
		c6.982-9.956,14.675-19.135,23.014-27.216V153.794z"/>
	<path style="fill:#EEB490;" d="M293.883,153.794c-4.396,9.503-13.834,16.162-24.824,16.743c1.228-5.366,1.875-10.99,1.875-16.743
		v-27.152C279.273,134.723,286.901,143.903,293.883,153.794z"/>
</g>
<path style="fill:#FACCB4;" d="M270.933,126.642v27.152c0,20.558-8.339,39.176-21.786,52.622
	c-13.446,13.511-32.065,21.786-52.622,21.786c-41.115,0-74.408-33.293-74.408-74.408v-27.281
	c21.463-20.881,46.998-34.263,74.408-34.263S249.471,105.762,270.933,126.642z"/>
<path style="fill:#56545F;" d="M196.525,92.251c50.295,0,94.319,45.576,118.432,98.521c0.259-3.168,0.259-6.271,0.259-9.438
	C315.216,104.016,262.012,0,196.525,0S77.834,104.016,77.834,181.333c0,3.426,0,6.529,0.259,9.438
	C102.206,137.568,146.23,92.251,196.525,92.251z"/>
<g>
</g>
<g>
</g>
<g>
</g>
<g>
</g>
<g>
</g>
<g>
</g>
<g>
</g>
<g>
</g>
<g>
</g>
<g>
</g>
<g>
</g>
<g>
</g>
<g>
</g>
<g>
</g>
<g>
</g>
</svg>
