<?xml version="1.0" encoding="iso-8859-1"?>
<!-- Generator: Adobe Illustrator 19.0.0, SVG Export Plug-In . SVG Version: 6.00 Build 0)  -->
<svg version="1.1" id="Layer_1" xmlns="http://www.w3.org/2000/svg" xmlns:xlink="http://www.w3.org/1999/xlink" x="0px" y="0px"
	 viewBox="0 0 508.609 508.609" style="enable-background:new 0 0 508.609 508.609;" xml:space="preserve">
<path style="fill:#9D90C5;" d="M339.073,284.143H169.536c-77.648,0-140.715,62.728-140.715,140.376v84.09h450.967v-84.09
	C479.788,346.872,416.721,284.143,339.073,284.143z"/>
<g>
	<circle style="fill:#EEB490;" cx="254.305" cy="271.258" r="62.728"/>
	<circle style="fill:#EEB490;" cx="164.111" cy="158.347" r="36.959"/>
	<circle style="fill:#EEB490;" cx="344.498" cy="158.347" r="36.959"/>
</g>
<path style="fill:#FACCB4;" d="M254.305,33.568L254.305,33.568c-52.217,0-94.601,42.384-94.601,94.601v69.171
	c0,52.217,42.384,94.601,94.601,94.601l0,0c52.217,0,94.601-42.384,94.601-94.601V128.17
	C348.906,75.952,306.522,33.568,254.305,33.568z"/>
<g>
	<path style="fill:#FF667C;" d="M363.147,286.177v110.199H145.462V286.177c-11.189,2.034-21.701,5.086-31.873,9.494v212.938h281.43
		V295.672C384.848,291.264,374.336,288.212,363.147,286.177z"/>
	<path style="fill:#FF667C;" d="M362.808,108.842L362.808,108.842v-0.339C362.808,48.487,314.321,0,254.305,0
		S145.801,48.487,145.801,108.503v0.339c0,0-6.781,27.465-27.804,27.465h135.968h135.968
		C369.589,136.307,362.808,108.842,362.808,108.842z"/>
</g>
<g>
</g>
<g>
</g>
<g>
</g>
<g>
</g>
<g>
</g>
<g>
</g>
<g>
</g>
<g>
</g>
<g>
</g>
<g>
</g>
<g>
</g>
<g>
</g>
<g>
</g>
<g>
</g>
<g>
</g>
</svg>
