<?xml version="1.0" encoding="iso-8859-1"?>
<!-- Generator: Adobe Illustrator 19.0.0, SVG Export Plug-In . SVG Version: 6.00 Build 0)  -->
<svg version="1.1" id="Layer_1" xmlns="http://www.w3.org/2000/svg" xmlns:xlink="http://www.w3.org/1999/xlink" x="0px" y="0px"
	 viewBox="0 0 393.051 393.051" style="enable-background:new 0 0 393.051 393.051;" xml:space="preserve">
<path style="fill:#9D90C5;" d="M322.295,257.81l-38.788-9.18v90.117H109.285v-90.053l-38.788,9.18
	c-20.687,4.978-34.844,21.721-34.844,41.374v93.802h321.745v-93.802C357.204,279.855,342.788,262.788,322.295,257.81z"/>
<polygon style="fill:#EEB490;" points="238.19,160.129 154.408,160.129 109.285,248.695 109.285,338.812 283.572,338.812 
	283.572,248.695 "/>
<path style="fill:#FACCB4;" d="M217.244,66.844c-28.832,41.115-60.768,45.576-75.96,44.8v41.891
	c0,30.384,24.63,55.014,55.014,55.014s55.014-24.63,55.014-55.014v-37.754C216.727,94.578,217.244,66.844,217.244,66.844z"/>
<g>
	<circle style="fill:#F1F3F7;" cx="161.972" cy="236.089" r="17.002"/>
	<circle style="fill:#F1F3F7;" cx="230.626" cy="236.089" r="17.002"/>
	<circle style="fill:#F1F3F7;" cx="196.299" cy="249.212" r="19.653"/>
</g>
<path style="fill:#8A6753;" d="M294.562,183.919c-3.943,0-7.887,0.517-11.507,1.293V86.756C283.055,38.788,244.267,0,196.299,0l0,0
	c-47.968,0-86.756,38.788-86.756,86.756v98.263c-3.685-0.776-7.628-1.293-11.507-1.293c-31.16,0-56.307,25.147-56.307,56.307
	s25.147,56.307,56.307,56.307s56.307-25.147,56.307-56.307v-51.588c-8.145-9.438-12.865-21.98-12.865-35.362v-41.891
	c15.192,0.776,47.192-3.685,75.96-44.8c0,0-0.517,27.798,33.81,49.002v37.754c0,13.382-4.978,25.923-12.865,35.362v53.98l0,0
	c1.293,30.125,25.923,53.98,56.307,53.98c31.16,0,56.307-25.147,56.307-56.307S325.721,183.919,294.562,183.919z"/>
<g>
</g>
<g>
</g>
<g>
</g>
<g>
</g>
<g>
</g>
<g>
</g>
<g>
</g>
<g>
</g>
<g>
</g>
<g>
</g>
<g>
</g>
<g>
</g>
<g>
</g>
<g>
</g>
<g>
</g>
</svg>
