<?xml version="1.0" encoding="UTF-8" standalone="no"?>
<svg
   width="48px"
   height="48px"
   viewBox="0 0 48 48"
   fill="none"
   version="1.1"
   id="svg2098"
   sodipodi:docname="sign_help.svg"
   inkscape:version="1.1.1 (c3084ef, 2021-09-22)"
   xmlns:inkscape="http://www.inkscape.org/namespaces/inkscape"
   xmlns:sodipodi="http://sodipodi.sourceforge.net/DTD/sodipodi-0.dtd"
   xmlns="http://www.w3.org/2000/svg"
   xmlns:svg="http://www.w3.org/2000/svg">
  <defs
     id="defs2102" />
  <sodipodi:namedview
     id="namedview2100"
     pagecolor="#ffffff"
     bordercolor="#666666"
     borderopacity="1.0"
     inkscape:pageshadow="2"
     inkscape:pageopacity="0.0"
     inkscape:pagecheckerboard="0"
     showgrid="false"
     inkscape:zoom="11.541667"
     inkscape:cx="6.8880866"
     inkscape:cy="24"
     inkscape:window-width="1296"
     inkscape:window-height="776"
     inkscape:window-x="0"
     inkscape:window-y="25"
     inkscape:window-maximized="0"
     inkscape:current-layer="svg2098" />
  <rect
     width="48"
     height="48"
     fill="white"
     fill-opacity="0.01"
     id="rect2090" />
  <path
     d="M24 44C29.5228 44 34.5228 41.7614 38.1421 38.1421C41.7614 34.5228 44 29.5228 44 24C44 18.4772 41.7614 13.4772 38.1421 9.85786C34.5228 6.23858 29.5228 4 24 4C18.4772 4 13.4772 6.23858 9.85786 9.85786C6.23858 13.4772 4 18.4772 4 24C4 29.5228 6.23858 34.5228 9.85786 38.1421C13.4772 41.7614 18.4772 44 24 44Z"
     fill="#2F88FF"
     stroke="black"
     stroke-width="4"
     stroke-linejoin="round"
     id="path2092"
     style="stroke-width:0.5;stroke-miterlimit:4;stroke-dasharray:none" />
  <path
     d="M24 28.6249V24.6249C27.3137 24.6249 30 21.9386 30 18.6249C30 15.3112 27.3137 12.6249 24 12.6249C20.6863 12.6249 18 15.3112 18 18.6249"
     stroke="white"
     stroke-width="4"
     stroke-linecap="round"
     stroke-linejoin="round"
     id="path2094" />
  <path
     fill-rule="evenodd"
     clip-rule="evenodd"
     d="M24 37.6249C25.3807 37.6249 26.5 36.5056 26.5 35.1249C26.5 33.7442 25.3807 32.6249 24 32.6249C22.6193 32.6249 21.5 33.7442 21.5 35.1249C21.5 36.5056 22.6193 37.6249 24 37.6249Z"
     fill="white"
     id="path2096" />
</svg>
