<?xml version="1.0" encoding="UTF-8" standalone="no"?>
<svg
   width="48px"
   height="48px"
   viewBox="0 0 48 48"
   fill="none"
   version="1.1"
   id="svg19"
   sodipodi:docname="sign_info.svg"
   inkscape:version="1.1.1 (c3084ef, 2021-09-22)"
   xmlns:inkscape="http://www.inkscape.org/namespaces/inkscape"
   xmlns:sodipodi="http://sodipodi.sourceforge.net/DTD/sodipodi-0.dtd"
   xmlns="http://www.w3.org/2000/svg"
   xmlns:svg="http://www.w3.org/2000/svg">
  <defs
     id="defs23" />
  <sodipodi:namedview
     id="namedview21"
     pagecolor="#ffffff"
     bordercolor="#666666"
     borderopacity="1.0"
     inkscape:pageshadow="2"
     inkscape:pageopacity="0.0"
     inkscape:pagecheckerboard="0"
     showgrid="false"
     inkscape:zoom="11.395833"
     inkscape:cx="6.7129799"
     inkscape:cy="24"
     inkscape:window-width="1312"
     inkscape:window-height="773"
     inkscape:window-x="0"
     inkscape:window-y="25"
     inkscape:window-maximized="0"
     inkscape:current-layer="svg19" />
  <rect
     width="48"
     height="48"
     fill="white"
     fill-opacity="0.01"
     id="rect9" />
  <path
     d="M24 44C29.5228 44 34.5228 41.7614 38.1421 38.1421C41.7614 34.5228 44 29.5228 44 24C44 18.4772 41.7614 13.4772 38.1421 9.85786C34.5228 6.23858 29.5228 4 24 4C18.4772 4 13.4772 6.23858 9.85786 9.85786C6.23858 13.4772 4 18.4772 4 24C4 29.5228 6.23858 34.5228 9.85786 38.1421C13.4772 41.7614 18.4772 44 24 44Z"
     fill="#2F88FF"
     stroke="black"
     stroke-width="4"
     stroke-linejoin="round"
     id="path11"
     style="stroke-width:0.4;stroke-miterlimit:4;stroke-dasharray:none" />
  <path
     fill-rule="evenodd"
     clip-rule="evenodd"
     d="M24 11C25.3807 11 26.5 12.1193 26.5 13.5C26.5 14.8807 25.3807 16 24 16C22.6193 16 21.5 14.8807 21.5 13.5C21.5 12.1193 22.6193 11 24 11Z"
     fill="white"
     id="path13" />
  <path
     d="M24.5 34V20H23.5H22.5"
     stroke="white"
     stroke-width="4"
     stroke-linecap="round"
     stroke-linejoin="round"
     id="path15" />
  <path
     d="M21 34H28"
     stroke="white"
     stroke-width="4"
     stroke-linecap="round"
     stroke-linejoin="round"
     id="path17" />
</svg>
