<?xml version="1.0" encoding="iso-8859-1"?>
<!-- Generator: Adobe Illustrator 19.0.0, SVG Export Plug-In . SVG Version: 6.00 Build 0)  -->
<svg version="1.1" id="Layer_1" xmlns="http://www.w3.org/2000/svg" xmlns:xlink="http://www.w3.org/1999/xlink" x="0px" y="0px"
	 viewBox="0 0 511.999 511.999" style="enable-background:new 0 0 511.999 511.999;" xml:space="preserve">
<path style="fill:#CCE6FF;" d="M294.153,511.654c-0.325,0.06-0.661,0.112-0.986,0.152c-0.03,0.01-0.07,0.01-0.112,0.01
	c-0.122,0.02-0.255,0.03-0.387,0.04c-0.02,0-0.03,0.01-0.05,0.01c-0.122,0.02-0.244,0-0.367,0.02
	c-0.63,0.06-1.271,0.112-1.901,0.112c-7.768,0-15.272-4.209-19.116-11.571l-42.073-80.323l-84.878-40.975
	c-0.07-0.03-0.142-0.082-0.224-0.122c-0.519-0.255-1.017-0.529-1.516-0.824c-0.082-0.06-0.173-0.112-0.265-0.163
	c-0.549-0.345-1.089-0.702-1.606-1.099c-0.112-0.092-0.213-0.173-0.325-0.265c-0.417-0.315-0.804-0.64-1.179-0.996
	c-0.132-0.112-0.255-0.234-0.377-0.335l-0.579-0.579c-0.692-0.712-1.332-1.474-1.933-2.278c-0.102-0.142-0.214-0.295-0.305-0.447
	c-0.265-0.367-0.509-0.752-0.742-1.149c-0.112-0.173-0.224-0.345-0.315-0.519c-0.255-0.437-0.477-0.884-0.692-1.342
	c-0.06-0.122-0.122-0.224-0.183-0.345c0-0.02-0.02-0.04-0.03-0.07l-35.667-78.819l-86.423-48.419
	c-0.072-0.03-0.132-0.07-0.203-0.122c-0.539-0.315-1.067-0.64-1.586-0.996c-0.04-0.02-0.072-0.05-0.102-0.06
	c-0.539-0.377-1.047-0.784-1.556-1.209c-0.102-0.102-0.224-0.203-0.335-0.295c-0.387-0.345-0.752-0.712-1.129-1.089l-0.305-0.305
	c-0.417-0.457-0.824-0.925-1.209-1.413c-0.102-0.122-0.183-0.244-0.265-0.367c-0.295-0.377-0.559-0.762-0.824-1.169
	c-0.122-0.183-0.234-0.377-0.357-0.559c-0.224-0.367-0.437-0.762-0.64-1.149c-0.092-0.173-0.183-0.325-0.275-0.497
	c-0.02-0.04-0.04-0.082-0.072-0.132c-0.102-0.203-0.173-0.417-0.265-0.63c-0.173-0.397-0.355-0.782-0.509-1.199
	c-0.132-0.335-0.234-0.682-0.345-1.017c-0.102-0.325-0.203-0.63-0.285-0.956c-0.112-0.397-0.203-0.794-0.285-1.179
	c-0.06-0.285-0.122-0.569-0.173-0.864c-0.072-0.397-0.112-0.804-0.162-1.199c-0.03-0.295-0.06-0.59-0.092-0.884
	c-0.02-0.387-0.03-0.762-0.04-1.139c0-0.325-0.01-0.661,0-0.996c0.01-0.335,0.04-0.671,0.06-0.996
	c0.03-0.377,0.06-0.752,0.102-1.119c0.04-0.305,0.092-0.6,0.142-0.894c0.07-0.397,0.142-0.794,0.224-1.179
	c0.072-0.295,0.152-0.579,0.234-0.864c0.102-0.387,0.213-0.762,0.335-1.149c0.112-0.315,0.234-0.64,0.367-0.956
	c0.122-0.325,0.244-0.651,0.387-0.976c0.183-0.407,0.387-0.814,0.6-1.209c0.092-0.193,0.183-0.387,0.285-0.569
	c0.02-0.04,0.03-0.07,0.06-0.102c0.275-0.477,0.569-0.936,0.864-1.393c0.102-0.142,0.183-0.285,0.285-0.427
	c0.305-0.447,0.661-0.884,1.017-1.301c0.102-0.122,0.203-0.265,0.305-0.387c0.285-0.325,0.6-0.64,0.915-0.956
	c0.183-0.203,0.367-0.407,0.559-0.579c0.162-0.162,0.345-0.305,0.519-0.457c0.367-0.325,0.722-0.64,1.109-0.946
	c0.102-0.082,0.224-0.142,0.325-0.224c0.467-0.345,0.946-0.682,1.434-0.986c0.132-0.092,0.275-0.152,0.397-0.234
	c0.487-0.285,0.976-0.569,1.484-0.814c0.03-0.01,0.06-0.04,0.092-0.05L310.259,58.283l79.805-38.891
	c0.722-0.357,1.444-0.651,2.176-0.915c0.579-0.417,1.179-0.814,1.81-1.179c53.471-31.082,84.92-13.767,100.08,1.536
	c0.936,0.936,1.81,1.871,2.613,2.797c25.53,28.804,11.114,65.265,1.576,89.383c-1.363,3.457-2.664,6.711-3.793,9.791
	c-0.04,0.122-0.102,0.224-0.132,0.335c-0.102,0.244-0.193,0.498-0.295,0.742c-0.05,0.112-0.102,0.224-0.152,0.335
	c-0.06,0.142-0.142,0.285-0.203,0.427c-0.03,0.05-0.04,0.102-0.07,0.152l-0.102,0.203l-18.871,38.719l-19.99,41.016L309.902,499.85
	C306.73,506.337,300.751,510.525,294.153,511.654z"/>
<path style="fill:#BDDEFF;" d="M294.153,511.654c-0.325,0.06-0.661,0.112-0.986,0.152c-0.03,0.01-0.07,0.01-0.112,0.01
	c-0.122,0.02-0.255,0.03-0.387,0.04c-0.02,0-0.03,0.01-0.05,0.01c-0.122,0.02-0.244,0-0.367,0.02
	c-0.63,0.06-1.271,0.112-1.901,0.112c-7.768,0-15.272-4.209-19.116-11.571l-42.073-80.323l-84.878-40.975
	c-0.07-0.03-0.142-0.082-0.224-0.122c-0.519-0.255-1.017-0.529-1.516-0.824c-0.082-0.06-0.173-0.112-0.265-0.163
	c-0.549-0.345-1.089-0.702-1.606-1.099c-0.112-0.092-0.213-0.173-0.325-0.265c-0.417-0.315-0.804-0.64-1.179-0.996
	c-0.132-0.112-0.255-0.234-0.377-0.335l-0.579-0.579L494.128,18.833c0.936,0.936,1.81,1.871,2.613,2.797
	c25.53,28.804,11.114,65.265,1.576,89.383c-1.363,3.457-2.664,6.711-3.793,9.791c-0.04,0.122-0.102,0.224-0.132,0.335
	c-0.102,0.244-0.193,0.498-0.295,0.742c-0.05,0.112-0.102,0.224-0.152,0.335c-0.06,0.142-0.142,0.285-0.203,0.427
	c-0.03,0.05-0.04,0.102-0.07,0.152l-0.102,0.203l-18.871,38.719l-19.99,41.016L309.902,499.85
	C306.73,506.337,300.751,510.525,294.153,511.654z"/>
<path style="fill:#E6563A;" d="M454.71,202.734L310.259,58.283l79.805-38.891c0.722-0.357,1.444-0.651,2.176-0.915
	c0.579-0.417,1.179-0.814,1.81-1.179c53.471-31.082,84.92-13.767,100.08,1.536c0.936,0.936,1.81,1.871,2.613,2.797
	c25.53,28.804,11.114,65.265,1.576,89.383c-1.363,3.457-2.664,6.711-3.793,9.791c-0.04,0.122-0.102,0.224-0.132,0.335
	c-0.102,0.244-0.193,0.498-0.295,0.742c-0.05,0.112-0.102,0.224-0.152,0.335c-0.06,0.142-0.142,0.285-0.203,0.427
	c-0.03,0.05-0.04,0.102-0.07,0.152l-0.102,0.203l-18.871,38.719L454.71,202.734z"/>
<path style="fill:#D9472B;" d="M454.71,202.734l-72.24-72.24L494.128,18.834c0.936,0.936,1.81,1.871,2.613,2.797
	c25.53,28.804,11.114,65.265,1.576,89.383c-1.363,3.457-2.664,6.711-3.793,9.791c-0.04,0.122-0.102,0.224-0.132,0.335
	c-0.102,0.244-0.193,0.498-0.295,0.742c-0.05,0.112-0.102,0.224-0.152,0.335c-0.06,0.142-0.142,0.285-0.203,0.427
	c-0.03,0.05-0.04,0.102-0.07,0.152l-0.102,0.203l-18.871,38.719L454.71,202.734z"/>
<g>
</g>
<g>
</g>
<g>
</g>
<g>
</g>
<g>
</g>
<g>
</g>
<g>
</g>
<g>
</g>
<g>
</g>
<g>
</g>
<g>
</g>
<g>
</g>
<g>
</g>
<g>
</g>
<g>
</g>
</svg>
