<?xml version="1.0" encoding="UTF-8" standalone="no"?>
<svg
   width="24px"
   height="24px"
   viewBox="0 0 24 24"
   version="1.1"
   id="svg71"
   sodipodi:docname="tag_yellow.svg"
   inkscape:version="1.1.1 (c3084ef, 2021-09-22)"
   xmlns:inkscape="http://www.inkscape.org/namespaces/inkscape"
   xmlns:sodipodi="http://sodipodi.sourceforge.net/DTD/sodipodi-0.dtd"
   xmlns="http://www.w3.org/2000/svg"
   xmlns:svg="http://www.w3.org/2000/svg">
  <defs
     id="defs75" />
  <sodipodi:namedview
     id="namedview73"
     pagecolor="#ffffff"
     bordercolor="#666666"
     borderopacity="1.0"
     inkscape:pageshadow="2"
     inkscape:pageopacity="0.0"
     inkscape:pagecheckerboard="0"
     showgrid="false"
     inkscape:zoom="22.916667"
     inkscape:cx="11.978182"
     inkscape:cy="12"
     inkscape:window-width="1312"
     inkscape:window-height="776"
     inkscape:window-x="0"
     inkscape:window-y="25"
     inkscape:window-maximized="0"
     inkscape:current-layer="svg71" />
  <path
     d="M 2,1 C 0.8954,1 0,1.9 0,3 v 7.1 0.1 c 0.016343,0.5 0.24566,1 0.59375,1.4 l 10.968,10.9 c 0.365,0.4 0.871,0.6 1.438,0.6 0.567,0 1.073,-0.2 1.438,-0.6 l 7.062,-7 c 0.408,-0.4 0.656,-0.9 0.656,-1.5 0,-0.6 -0.248,-1.2 -0.656,-1.5 L 10.59375,1.6 C 10.23875,1.2 9.72695,1 9.18725,1 H 9.15595 1.99975 Z M 5,4 C 6.1046,4 7,4.9 7,6 7,7.1 6.1046,8 5,8 3.8954,8 3,7.1 3,6 3,4.9 3.8954,4 5,4 Z"
     fill="#8e44ad"
     id="path59"
     style="fill:#ffd700" />
  <path
     d="M 2,0 C 0.8954,0 0,0.89544 0,2 v 7.1562 0.0626 c 0.016343,0.5271 0.24566,1.0272 0.59375,1.3752 l 10.968,10.968 c 0.365,0.38 0.871,0.594 1.438,0.594 0.567,0 1.073,-0.214 1.438,-0.594 l 7.062,-7.062 c 0.408,-0.366 0.656,-0.909 0.656,-1.5 0,-0.591 -0.248,-1.134 -0.656,-1.5 L 10.59375,0.594 C 10.23875,0.23874 9.72695,0.00836 9.18725,0 H 9.15595 1.99975 Z M 5,3 C 6.1046,3 7,3.8954 7,5 7,6.1046 6.1046,7 5,7 3.8954,7 3,6.1046 3,5 3,3.8954 3.8954,3 5,3 Z"
     fill="#9b59b6"
     id="path61"
     style="fill:#ffff00" />
  <path
     d="M 13,21 20,14 12,6 5,13 Z"
     fill="#8e44ad"
     id="path63"
     style="fill:#ffd700" />
  <path
     d="M 13,20 20,13 12,5 5,12 Z"
     fill="#ecf0f1"
     id="path65" />
  <path
     fill="#7f8c8d"
     d="M 12,8 8.5,11.5 8,12 l 0.5,0.5 4,-4 z m 2,2 -3.5,3.5 -0.5,0.5 0.5,0.5 4,-4 z m 2,2 -3.5,3.5 -0.5,0.5 0.5,0.5 4,-4 z"
     id="path67" />
</svg>
